<svg xmlns="http://www.w3.org/2000/svg" xmlns:xlink="http://www.w3.org/1999/xlink" x="0" y="0" width="702.2999877929688" height="620.0499877929688" style="
        width:702.2999877929688px;
        height:620.0499877929688px;
        background: transparent;
        fill: none;
">
        
        
        <svg xmlns="http://www.w3.org/2000/svg" class="role-diagram-draw-area" style="overflow: visible;"><g class="shapes-region" style="stroke: black; fill: none;"><g class="composite-shape"><path class="real" d=" M80,72 C80,65.37 85.37,60 92,60 L188,60 C194.63,60 200,65.37 200,72 L200,108 C200,114.63 194.63,120 188,120 L92,120 C85.37,120 80,114.63 80,108 Z" style="stroke-width: 1px; stroke: rgb(155, 155, 155); fill: none; fill-opacity: 1; stroke-opacity: 1;"/></g><g class="arrow-line"><path class="connection real" stroke-dasharray="" d="  M80,100 L200,100" style="stroke: rgb(155, 155, 155); stroke-width: 1px; fill: none; fill-opacity: 1; stroke-opacity: 1;"/></g><g class="composite-shape"><path class="real" d=" M80,312 C80,305.37 85.37,300 92,300 L188,300 C194.63,300 200,305.37 200,312 L200,348 C200,354.63 194.63,360 188,360 L92,360 C85.37,360 80,354.63 80,348 Z" style="stroke-width: 1px; stroke: rgb(155, 155, 155); fill: none; fill-opacity: 1; stroke-opacity: 1;"/></g><g class="composite-shape"><path class="real" d=" M460,72 C460,65.37 465.37,60 472,60 L568,60 C574.63,60 580,65.37 580,72 L580,108 C580,114.63 574.63,120 568,120 L472,120 C465.37,120 460,114.63 460,108 Z" style="stroke-width: 1px; stroke: rgb(155, 155, 155); fill: none; fill-opacity: 1; stroke-opacity: 1;"/></g><g class="composite-shape"><path class="real" d=" M460,312 C460,305.37 465.37,300 472,300 L568,300 C574.63,300 580,305.37 580,312 L580,348 C580,354.63 574.63,360 568,360 L472,360 C465.37,360 460,354.63 460,348 Z" style="stroke-width: 1px; stroke: rgb(155, 155, 155); fill: none; fill-opacity: 1; stroke-opacity: 1;"/></g><g class="composite-shape"><path class="real" d=" M229,110 L329,110 L329,156 L229,156 Z" style="stroke-width: 1px; stroke: rgb(208, 2, 27); stroke-opacity: 1; fill: none; fill-opacity: 1;"/></g><g class="composite-shape"><path class="real" d=" M170,160 L250,160 L250,180 L170,180 Z" style="stroke-width: 1px; stroke: rgb(74, 144, 226); stroke-opacity: 1; fill: none; fill-opacity: 1;"/></g><g class="arrow-line"><path class="connection real" stroke-dasharray="" d="  M200,80 C278.89,79.52 294.17,85.22 299.6,108.2" style="stroke: rgb(208, 2, 27); stroke-opacity: 1; stroke-width: 1px; fill: none; fill-opacity: 1;"/><g stroke="rgb(208,2,27)" stroke-opacity="1" transform="matrix(-0.20347087236918765,-0.9790809997632074,0.9790809997632074,-0.20347087236918765,300,110)" style="stroke: rgb(208, 2, 27); stroke-width: 1px;"><path d=" M10.93,-3.29 Q4.96,-0.45 0,0 Q4.96,0.45 10.93,3.29"/></g></g><g class="arrow-line"><path class="connection real" stroke-dasharray="" d="  M110,120 C110.9,153.18 108.95,167.88 168.19,169.94" style="stroke: rgb(74, 144, 226); stroke-opacity: 1; stroke-width: 1px; fill: none; fill-opacity: 1;"/><g stroke="rgb(74,144,226)" stroke-opacity="1" transform="matrix(-0.9995546671588833,-0.02984069973868113,0.02984069973868113,-0.9995546671588833,170.00000000000003,170.00000000000003)" style="stroke: rgb(74, 144, 226); stroke-width: 1px;"><path d=" M10.93,-3.29 Q4.96,-0.45 0,0 Q4.96,0.45 10.93,3.29"/></g></g><g class="arrow-line"><path class="connection real" stroke-dasharray="" d="  M260,110 C259.58,100.28 258.92,90.38 201.75,90.01" style="stroke: rgb(208, 2, 27); stroke-opacity: 1; stroke-width: 1px; fill: none; fill-opacity: 1;"/><g stroke="rgb(208,2,27)" stroke-opacity="1" transform="matrix(0.9999955982815133,0.002967055375001434,-0.002967055375001434,0.9999955982815133,200,90)" style="stroke: rgb(208, 2, 27); stroke-width: 1px;"><path d=" M10.93,-3.29 Q4.96,-0.45 0,0 Q4.96,0.45 10.93,3.29"/></g></g><g class="arrow-line"><path class="connection real" stroke-dasharray="" d="  M180,160 L180,122" style="stroke: rgb(74, 144, 226); stroke-opacity: 1; stroke-width: 1px; fill: none; fill-opacity: 1;"/><g stroke="rgb(74,144,226)" stroke-opacity="1" transform="matrix(3.061616997868383e-16,1,-1,3.061616997868383e-16,180,120)" style="stroke: rgb(74, 144, 226); stroke-width: 1px;"><path d=" M10.93,-3.29 Q4.96,-0.45 0,0 Q4.96,0.45 10.93,3.29"/></g></g><g class="arrow-line"><path class="connection real" stroke-dasharray="" d="  M260,156 Q262.47,158.61 259.87,161.22 Q257.25,163.47 259.6,166.1 Q261.94,168.8 259.3,171.28 Q256.69,173.4 259.1,176.23 Q261.55,178.56 259.06,181.33 Q256.62,183.77 259.23,186.04 Q261.95,188.64 259.74,191.27 Q257.64,194.07 260.56,196.01 Q263.54,197.73 261.93,201.17 Q260.41,204.37 263.68,205.76 Q266.98,206.86 265.98,210.22 Q265.29,213.79 268.57,214.09 Q272.14,214.54 272.09,218.18 Q271.99,221.59 275.43,221.29 Q279.26,221.13 279.79,224.56 Q280.65,228.07 283.65,226.93 Q287.19,225.98 288.61,229.44 Q289.65,232.62 292.72,231.16 Q296.47,229.86 297.97,232.99 Q299.68,236.11 302.87,234.39 Q306.03,232.59 307.24,235.43 Q309.52,238.45 312.78,236.47 Q314.94,234.23 317.49,236.97 Q320.3,239.59 322.28,237.11 Q325.07,234.53 327.14,236.91 Q330.37,239.12 332.07,236.38 Q334.63,233.46 337.05,235.55 Q340.63,237.34 342.08,234.42 Q344.44,231.19 347.15,233 Q349.96,234.73 352.25,231.31 Q353.42,228.22 356.34,229.78 Q359.35,231.27 361.47,227.65 Q362.49,224.45 365.58,225.77 Q368.74,227.03 369.69,223.76 Q371.6,219.95 374.82,221.06 Q378.09,222.1 378.91,218.76 Q379.68,215.41 382.99,216.34 Q386.34,217.21 387.05,213.82 Q388.7,209.77 392.08,210.52 Q395.5,211.22 396.08,207.77 Q396.62,204.33 400.05,204.94 Q403.5,205.51 403.97,202.04 Q404.4,198.57 407.86,199.06 Q411.34,199.51 411.7,196.02 Q412.01,192.54 415.48,192.92 Q418.97,193.27 419.22,189.78 Q419.42,186.3 422.89,186.59 Q426.37,186.85 427.39,182.56 Q427.46,179.1 430.91,179.3 Q434.36,179.48 434.36,176.03 Q434.31,172.6 437.73,172.74 Q441.15,172.87 441.01,169.46 Q441.63,165.25 445,165.35 Q448.37,165.43 448.08,162.08 Q448.49,157.96 451.8,158.02 Q455.11,158.07 454.66,154.81 Q454.84,150.79 458.09,150.84 Q461.98,150.09 461.34,146.95 Q461.25,143.09 464.4,143.14 Q468.13,142.42 467.83,138.69 Q466.89,135.76 470.46,135.12 Q473.98,134.47 473.33,131 L475.07,128.38 L479.09,121.69" style="stroke: rgb(208, 2, 27); stroke-opacity: 1; stroke-width: 1px; fill: none; fill-opacity: 1;"/><g stroke="rgb(208,2,27)" stroke-opacity="1" transform="matrix(-0.46004482475918923,0.8878956916284068,-0.8878956916284068,-0.46004482475918923,480,120)" style="stroke: rgb(208, 2, 27); stroke-width: 1px;"><path d=" M10.93,-3.29 Q4.96,-0.45 0,0 Q4.96,0.45 10.93,3.29"/></g></g><g class="arrow-line"><path class="connection real" stroke-dasharray="" d="  M220,180 C222.91,235.68 303.58,256.34 460,320" style="stroke: rgb(74, 144, 226); stroke-opacity: 1; stroke-width: 1px; fill: none; fill-opacity: 1;"/><g stroke="rgb(74,144,226)" stroke-opacity="1" transform="matrix(-0.9262657510190669,-0.3768710104121621,0.3768710104121621,-0.9262657510190669,460,320)" style="stroke: rgb(74, 144, 226); stroke-width: 1px;"><path d=" M10.93,-3.29 Q4.96,-0.45 0,0 Q4.96,0.45 10.93,3.29"/></g></g><g class="arrow-line"><path class="connection real" stroke-dasharray="" d="  M520,300 Q517.5,297.5 520,295 Q522.5,292.5 520,290 Q517.5,287.5 520,285 Q522.5,282.5 520,280 Q517.5,277.5 520,275 Q522.5,272.5 520,270 Q517.5,267.5 520,265 Q522.5,262.5 520,260 Q517.5,257.5 520,255 Q522.5,252.5 520,250 Q517.5,247.5 520,245 Q522.5,242.5 520,240 Q517.5,237.5 520,235 Q522.5,232.5 520,230 Q517.5,227.5 520,225 Q522.5,222.5 520,220 Q517.5,217.5 520,215 Q522.5,212.5 520,210 Q517.5,207.5 520,205 Q522.5,202.5 520,200 Q517.5,197.5 520,195 Q522.5,192.5 520,190 Q517.5,187.5 520,185 Q522.5,182.5 520,180 Q517.5,177.5 520,175 Q522.5,172.5 520,170 Q517.5,167.5 520,165 Q522.5,162.5 520,160 Q517.5,157.5 520,155 Q522.5,152.5 520,150 Q517.5,147.5 520,145 Q522.5,142.5 520,140 Q517.5,137.5 520,135 Q522.5,132.5 520,130 L520,122" style="stroke: rgb(208, 2, 27); stroke-opacity: 1; stroke-width: 1px; fill: none; fill-opacity: 1;"/><g stroke="rgb(208,2,27)" stroke-opacity="1" transform="matrix(3.061616997868383e-16,1,-1,3.061616997868383e-16,520,120)" style="stroke: rgb(208, 2, 27); stroke-width: 1px;"><path d=" M10.93,-3.29 Q4.96,-0.45 0,0 Q4.96,0.45 10.93,3.29"/></g></g><g class="arrow-line"><path class="connection real" stroke-dasharray="" d="  M200,320 Q202.72,317.62 205.43,320.25 Q207.73,322.87 210.42,320.51 Q213.25,318.15 215.23,320.76 Q218.03,323.4 220.43,321.01 Q222.88,318.62 225.17,321.23 Q227.53,323.82 230.16,321.42 Q232.83,319.01 235.39,321.59 Q238.03,324.16 240.84,321.73 Q242.75,319.26 245.54,321.81 Q247.44,324.33 250.38,321.85 Q253.35,319.36 255.35,321.85 Q258.41,324.33 260.43,321.81 Q262.45,319.27 265.62,321.71 Q267.8,324.15 270.92,321.55 Q272.97,318.97 275.22,321.38 Q278.61,323.72 280.68,321.11 Q282.73,318.48 285.1,320.84 Q288.63,323.09 290.69,320.42 Q292.73,317.75 295.2,320.04 Q297.72,322.31 300.9,319.47 Q302.91,316.74 305.49,318.95 Q308.11,321.15 310.11,318.37 Q312.08,315.58 315.9,317.56 Q318.62,319.67 320.56,316.83 Q322.47,313.97 325.23,316.02 Q328.03,318.05 329.9,315.15 Q331.74,312.23 334.58,314.2 Q337.46,316.13 340.43,312.89 Q342.17,309.91 345.09,311.76 Q348.06,313.57 349.75,310.53 Q351.39,307.48 354.39,309.22 Q357.43,310.92 359.01,307.82 Q360.54,304.7 363.6,306.32 Q366.72,307.9 368.17,304.73 Q370.68,301.13 373.83,302.59 Q377.02,304.01 378.31,300.77 Q379.54,297.52 382.76,298.84 Q386.01,300.1 387.15,296.8 Q388.22,293.5 391.49,294.65 Q394.81,295.74 395.78,292.38 Q396.67,289.03 400,290 Q403.35,290.93 405.11,286.93 Q405.75,283.58 409.04,284.44 Q412.34,285.26 412.84,281.91 Q413.25,278.58 417.4,278.7 Q420.66,279.4 420.91,276.09 Q421.91,272.14 425.13,272.77 Q428.36,273.35 429.16,269.4 Q429.06,266.16 432.25,266.66 Q436.22,266.4 435.97,263.18 Q436.34,259.3 439.51,259.65 Q443.39,259.2 442.9,256.05 Q442.97,252.22 446.75,251.66 Q449.92,251.77 449.8,247.94 Q449,244.91 452.71,244.16 Q456.42,243.32 455.48,240.32 Q455.01,236.59 458.64,235.63 Q461.76,235.39 461.13,231.66 Q460.42,227.98 463.51,227.63 Q467.07,226.39 466.22,222.71 Q464.87,219.9 468.37,218.55 Q471.86,217.11 470.42,214.32 Q469.33,210.72 472.76,209.17 Q475.81,208.42 474.62,204.81 Q473.03,202.11 476.41,200.39 Q479.78,198.6 478.13,195.91 Q476.77,192.34 479.78,191.36 Q483.1,189.42 481.69,185.83 Q479.93,183.18 483.22,181.15 Q486.2,180.01 484.71,176.4 Q482.9,173.76 486.16,171.59 Q489.13,170.36 487.58,166.72 Q485.74,164.07 488.7,162.78 Q491.94,160.46 490.08,157.8 Q488.49,154.12 491.45,152.75 Q494.41,151.35 492.81,147.63 Q490.94,144.94 494.17,142.46 Q497.13,141 495.26,138.27 Q493.39,135.53 496.63,132.98 Q499.6,131.47 497.74,128.69 L497.74,128.69 L499.71,121.1" style="stroke: rgb(208, 2, 27); stroke-opacity: 1; stroke-width: 1px; fill: none; fill-opacity: 1;"/><g stroke="rgb(208,2,27)" stroke-opacity="1" transform="matrix(-0.2530826025190173,0.967444673509654,-0.967444673509654,-0.2530826025190173,500,120)" style="stroke: rgb(208, 2, 27); stroke-width: 1px;"><path d=" M10.93,-3.29 Q4.96,-0.45 0,0 Q4.96,0.45 10.93,3.29"/></g></g><g class="arrow-line"><path class="connection real" stroke-dasharray="" d="  M200,330 Q202.5,327.5 205,330 Q207.5,332.5 210,330 Q212.5,327.5 215,330 Q217.5,332.5 220,330 Q222.5,327.5 225,330 Q227.5,332.5 230,330 Q232.5,327.5 235,330 Q237.5,332.5 240,330 Q242.5,327.5 245,330 Q247.5,332.5 250,330 Q252.5,327.5 255,330 Q257.5,332.5 260,330 Q262.5,327.5 265,330 Q267.5,332.5 270,330 Q272.5,327.5 275,330 Q277.5,332.5 280,330 Q282.5,327.5 285,330 Q287.5,332.5 290,330 Q292.5,327.5 295,330 Q297.5,332.5 300,330 Q302.5,327.5 305,330 Q307.5,332.5 310,330 Q312.5,327.5 315,330 Q317.5,332.5 320,330 Q322.5,327.5 325,330 Q327.5,332.5 330,330 Q332.5,327.5 335,330 Q337.5,332.5 340,330 Q342.5,327.5 345,330 Q347.5,332.5 350,330 Q352.5,327.5 355,330 Q357.5,332.5 360,330 Q362.5,327.5 365,330 Q367.5,332.5 370,330 Q372.5,327.5 375,330 Q377.5,332.5 380,330 Q382.5,327.5 385,330 Q387.5,332.5 390,330 Q392.5,327.5 395,330 Q397.5,332.5 400,330 Q402.5,327.5 405,330 Q407.5,332.5 410,330 Q412.5,327.5 415,330 Q417.5,332.5 420,330 Q422.5,327.5 425,330 Q427.5,332.5 430,330 Q432.5,327.5 435,330 Q437.5,332.5 440,330 Q442.5,327.5 445,330 Q447.5,332.5 450,330 L458,330" style="stroke: rgb(74, 144, 226); stroke-opacity: 1; stroke-width: 1px; fill: none; fill-opacity: 1;"/><g stroke="rgb(74,144,226)" stroke-opacity="1" transform="matrix(-1,1.2246467991473532e-16,-1.2246467991473532e-16,-1,459.99999999999994,330.00000000000006)" style="stroke: rgb(74, 144, 226); stroke-width: 1px;"><path d=" M10.93,-3.29 Q4.96,-0.45 0,0 Q4.96,0.45 10.93,3.29"/></g></g><g class="composite-shape"><path class="real" d=" M630,150 L660,180 L630,210 L600,180 Z" style="stroke-width: 1px; stroke: rgb(155, 155, 155); fill: none; fill-opacity: 1; stroke-opacity: 1;"/></g><g class="arrow-line"><path class="connection real" stroke-dasharray="" d="  M580,100 C608.33,111.28 618.5,129.43 619.92,158.22" style="stroke: rgb(126, 211, 33); stroke-opacity: 1; stroke-width: 1px; fill: none; fill-opacity: 1;"/><g stroke="rgb(126,211,33)" stroke-opacity="1" transform="matrix(-0.03646929244152572,-0.9993347740916527,0.9993347740916527,-0.03646929244152572,620,160)" style="stroke: rgb(126, 211, 33); stroke-width: 1px;"><path d=" M10.93,-3.29 Q4.96,-0.45 0,0 Q4.96,0.45 10.93,3.29"/></g></g><g class="arrow-line"><path class="connection real" stroke-dasharray="" d="  M560,120 C562.87,143.82 575.2,164.22 608.47,169.76" style="stroke: rgb(245, 166, 35); stroke-opacity: 1; stroke-width: 1px; fill: none; fill-opacity: 1;"/><g stroke="rgb(245,166,35)" stroke-opacity="1" transform="matrix(-0.9889642078908801,-0.1481546337809383,0.1481546337809383,-0.9889642078908801,610,170)" style="stroke: rgb(245, 166, 35); stroke-width: 1px;"><path d=" M10.93,-3.29 Q4.96,-0.45 0,0 Q4.96,0.45 10.93,3.29"/></g></g><g class="arrow-line"><path class="connection real" stroke-dasharray="" d="  M100,120 L100,298" style="stroke: rgb(245, 166, 35); stroke-opacity: 1; stroke-width: 1px; fill: none; fill-opacity: 1;"/><g stroke="rgb(245,166,35)" stroke-opacity="1" transform="matrix(-1.8369701987210297e-16,-1,1,-1.8369701987210297e-16,100,300)" style="stroke: rgb(245, 166, 35); stroke-width: 1px;"><path d=" M10.93,-3.29 Q4.96,-0.45 0,0 Q4.96,0.45 10.93,3.29"/></g></g><g class="arrow-line"><path class="connection real" stroke-dasharray="" d="  M540,300 C540.24,267.18 569.41,220.94 608.8,190.91" style="stroke: rgb(245, 166, 35); stroke-opacity: 1; stroke-width: 1px; fill: none; fill-opacity: 1;"/><g stroke="rgb(245,166,35)" stroke-opacity="1" transform="matrix(-0.7999989281485084,0.6000014291326627,-0.6000014291326627,-0.7999989281485084,610,190)" style="stroke: rgb(245, 166, 35); stroke-width: 1px;"><path d=" M10.93,-3.29 Q4.96,-0.45 0,0 Q4.96,0.45 10.93,3.29"/></g></g><g class="arrow-line"><path class="connection real" stroke-dasharray="" d="  M560,360 C560.24,390.84 570.42,389.16 590,370 C609.19,351.23 608.29,340.61 581.66,338.27" style="stroke: rgb(74, 144, 226); stroke-opacity: 1; stroke-width: 1px; fill: none; fill-opacity: 1;"/><g stroke="rgb(74,144,226)" stroke-opacity="1" transform="matrix(0.9973906252323237,0.0721937718828603,-0.0721937718828603,0.9973906252323237,580,338.1333312988281)" style="stroke: rgb(74, 144, 226); stroke-width: 1px;"><path d=" M10.93,-3.29 Q4.96,-0.45 0,0 Q4.96,0.45 10.93,3.29"/></g></g><g class="arrow-line"><path class="connection real" stroke-dasharray="" d="  M100,60 C100.24,30.84 88.91,30.18 70,50 C51.47,69.43 50.29,79.12 78.25,79.96" style="stroke: rgb(126, 211, 33); stroke-opacity: 1; stroke-width: 1px; fill: none; fill-opacity: 1;"/><g stroke="rgb(126,211,33)" stroke-opacity="1" transform="matrix(-0.9998654230425394,-0.016405359001361773,0.016405359001361773,-0.9998654230425394,80.00000000000001,79.99999999999999)" style="stroke: rgb(126, 211, 33); stroke-width: 1px;"><path d=" M10.93,-3.29 Q4.96,-0.45 0,0 Q4.96,0.45 10.93,3.29"/></g></g><g class="arrow-line"><path class="connection real" stroke-dasharray="" d="  M480,60 C480.24,30.84 468.91,30.18 450,50 C431.47,69.43 430.29,79.12 458.25,79.96" style="stroke: rgb(208, 2, 27); stroke-opacity: 1; stroke-width: 1px; fill: none; fill-opacity: 1;"/><g stroke="rgb(208,2,27)" stroke-opacity="1" transform="matrix(-0.9998654230425394,-0.016405359001361773,0.016405359001361773,-0.9998654230425394,460,80.00000000000001)" style="stroke: rgb(208, 2, 27); stroke-width: 1px;"><path d=" M10.93,-3.29 Q4.96,-0.45 0,0 Q4.96,0.45 10.93,3.29"/></g></g><g class="arrow-line"><path class="connection real" stroke-dasharray="" d="  M580,80 C609.58,80.18 608.91,70.18 590,50 C571.47,30.23 561.32,30.81 560.07,58.28" style="stroke: rgb(74, 144, 226); stroke-opacity: 1; stroke-width: 1px; fill: none; fill-opacity: 1;"/><g stroke="rgb(74,144,226)" stroke-opacity="1" transform="matrix(0.031236311796863727,-0.9995120273540129,0.9995120273540129,0.031236311796863727,560,60)" style="stroke: rgb(74, 144, 226); stroke-width: 1px;"><path d=" M10.93,-3.29 Q4.96,-0.45 0,0 Q4.96,0.45 10.93,3.29"/></g></g><g class="arrow-line"><path class="connection real" stroke-dasharray="" d="  M580,320 C609.58,320.18 608.91,310.18 590,290 C571.47,270.23 561.32,270.81 560.07,298.28" style="stroke: rgb(126, 211, 33); stroke-opacity: 1; stroke-width: 1px; fill: none; fill-opacity: 1;"/><g stroke="rgb(126,211,33)" stroke-opacity="1" transform="matrix(0.031236311796863727,-0.9995120273540129,0.9995120273540129,0.031236311796863727,560,300)" style="stroke: rgb(126, 211, 33); stroke-width: 1px;"><path d=" M10.93,-3.29 Q4.96,-0.45 0,0 Q4.96,0.45 10.93,3.29"/></g></g><g class="arrow-line"><path class="connection real" stroke-dasharray="" d="  M80,338.13 C49.58,339.64 50.91,348.98 70,368.13 C88.71,386.91 101.08,388.26 100.08,361.66" style="stroke: rgb(245, 166, 35); stroke-opacity: 1; stroke-width: 1px; fill: none; fill-opacity: 1;"/><g stroke="rgb(245,166,35)" stroke-opacity="1" transform="matrix(0.055647243356626845,0.9984504916653646,-0.9984504916653646,0.055647243356626845,100,360)" style="stroke: rgb(245, 166, 35); stroke-width: 1px;"><path d=" M10.93,-3.29 Q4.96,-0.45 0,0 Q4.96,0.45 10.93,3.29"/></g></g><g class="arrow-line"><path class="connection real" stroke-dasharray="" d="  M180,360 C180.24,387.64 191.09,390.49 210,370 C228.53,349.92 228.9,340.56 201.7,340.02" style="stroke: rgb(126, 211, 33); stroke-opacity: 1; stroke-width: 1px; fill: none; fill-opacity: 1;"/><g stroke="rgb(126,211,33)" stroke-opacity="1" transform="matrix(0.9999813422410571,0.006108614390678624,-0.006108614390678624,0.9999813422410571,200,340)" style="stroke: rgb(126, 211, 33); stroke-width: 1px;"><path d=" M10.93,-3.29 Q4.96,-0.45 0,0 Q4.96,0.45 10.93,3.29"/></g></g><g class="arrow-line"><path class="connection real" stroke-dasharray="" d="  M60,470 L148,470" style="stroke: rgb(126, 211, 33); stroke-opacity: 1; stroke-width: 1px; fill: none; fill-opacity: 1;"/><g stroke="rgb(126,211,33)" stroke-opacity="1" transform="matrix(-1,1.2246467991473532e-16,-1.2246467991473532e-16,-1,150,470)" style="stroke: rgb(126, 211, 33); stroke-width: 1px;"><path d=" M10.93,-3.29 Q4.96,-0.45 0,0 Q4.96,0.45 10.93,3.29"/></g></g><g class="arrow-line"><path class="connection real" stroke-dasharray="" d="  M60,440 L148,440" style="stroke: rgb(245, 166, 35); stroke-opacity: 1; stroke-width: 1px; fill: none; fill-opacity: 1;"/><g stroke="rgb(245,166,35)" stroke-opacity="1" transform="matrix(-1,1.2246467991473532e-16,-1.2246467991473532e-16,-1,150,440)" style="stroke: rgb(245, 166, 35); stroke-width: 1px;"><path d=" M10.93,-3.29 Q4.96,-0.45 0,0 Q4.96,0.45 10.93,3.29"/></g></g><g class="arrow-line"><path class="connection real" stroke-dasharray="" d="  M60,500 L148,500" style="stroke: rgb(208, 2, 27); stroke-opacity: 1; stroke-width: 1px; fill: none; fill-opacity: 1;"/><g stroke="rgb(208,2,27)" stroke-opacity="1" transform="matrix(-1,1.2246467991473532e-16,-1.2246467991473532e-16,-1,150,500)" style="stroke: rgb(208, 2, 27); stroke-width: 1px;"><path d=" M10.93,-3.29 Q4.96,-0.45 0,0 Q4.96,0.45 10.93,3.29"/></g></g><g class="arrow-line"><path class="connection real" stroke-dasharray="" d="  M60,530 L148,530" style="stroke: rgb(74, 144, 226); stroke-opacity: 1; stroke-width: 1px; fill: none; fill-opacity: 1;"/><g stroke="rgb(74,144,226)" stroke-opacity="1" transform="matrix(-1,1.2246467991473532e-16,-1.2246467991473532e-16,-1,150,530)" style="stroke: rgb(74, 144, 226); stroke-width: 1px;"><path d=" M10.93,-3.29 Q4.96,-0.45 0,0 Q4.96,0.45 10.93,3.29"/></g></g><g class="composite-shape"><path class="real" d=" M50,410 L280,410 L280,590 L50,590 Z" style="stroke-width: 1px; stroke: rgb(74, 74, 74); stroke-opacity: 1; fill: none; fill-opacity: 1;"/></g><g class="arrow-line"><path class="connection real" stroke-dasharray="" d="  M50,120 C48.45,92.12 49.7,89.65 78.22,89.98" style="stroke: rgb(189, 16, 224); stroke-opacity: 1; stroke-width: 1px; fill: none; fill-opacity: 1;"/><g stroke="rgb(189,16,224)" stroke-opacity="1" transform="matrix(-0.9998925328992174,-0.01466024052966052,0.01466024052966052,-0.9998925328992174,80,90)" style="stroke: rgb(189, 16, 224); stroke-width: 1px;"><path d=" M10.93,-3.29 Q4.96,-0.45 0,0 Q4.96,0.45 10.93,3.29"/></g></g><g class="arrow-line"><path class="connection real" stroke-dasharray="" d="  M490,390 C478.7,392.82 479.05,384.01 479.93,361.74" style="stroke: rgb(189, 16, 224); stroke-opacity: 1; stroke-width: 1px; fill: none; fill-opacity: 1;"/><g stroke="rgb(189,16,224)" stroke-opacity="1" transform="matrix(-0.039085416795353455,0.9992358731520469,-0.9992358731520469,-0.039085416795353455,480.00000000000006,360)" style="stroke: rgb(189, 16, 224); stroke-width: 1px;"><path d=" M10.93,-3.29 Q4.96,-0.45 0,0 Q4.96,0.45 10.93,3.29"/></g></g><g class="arrow-line"><path class="connection real" stroke-dasharray="" d="  M60,560 Q62.5,557.5 65,560 Q67.5,562.5 70,560 Q72.5,557.5 75,560 Q77.5,562.5 80,560 Q82.5,557.5 85,560 Q87.5,562.5 90,560 Q92.5,557.5 95,560 Q97.5,562.5 100,560 Q102.5,557.5 105,560 Q107.5,562.5 110,560 Q112.5,557.5 115,560 Q117.5,562.5 120,560 Q122.5,557.5 125,560 Q127.5,562.5 130,560 Q132.5,557.5 135,560 Q137.5,562.5 140,560 Q142.5,557.5 145,560 Q147.5,562.5 150,560 L150,560" style="stroke: rgb(155, 155, 155); stroke-width: 1px; fill: none; fill-opacity: 1; stroke-opacity: 1;"/></g><g/></g><g/><g/><g/></svg>
        <svg xmlns="http://www.w3.org/2000/svg" xmlns:xlink="http://www.w3.org/1999/xlink" width="700" height="617.75" style="width:700px;height:617.75px;font-family:Asana-Math, Asana;background:transparent;"><g><g><g><text x="213.1500244140625" y="189.066650390625" style="white-space:pre;stroke:none;fill:rgb(74,144,226);fill-opacity:1;font-size:12px;font-family:Arial, Helvetica, sans-serif;font-weight:400;font-style:normal;dominant-baseline:text-before-edge;text-decoration:rgb(74, 144, 226);">y</text></g></g></g><g><g><g><text x="182.1500244140625" y="130.066650390625" style="white-space:pre;stroke:none;fill:rgb(74,144,226);fill-opacity:1;font-size:12px;font-family:Arial, Helvetica, sans-serif;font-weight:400;font-style:normal;dominant-baseline:text-before-edge;text-decoration:rgb(74, 144, 226);">n</text></g></g></g><g><g><g><text x="222.1500244140625" y="91.066650390625" style="white-space:pre;stroke:none;fill:rgb(208,2,27);fill-opacity:1;font-size:12px;font-family:Arial, Helvetica, sans-serif;font-weight:400;font-style:normal;dominant-baseline:text-before-edge;text-decoration:rgb(208, 2, 27);">n</text></g></g></g><g><g><g><text x="262.1500244140625" y="166.066650390625" style="white-space:pre;stroke:none;fill:rgb(208,2,27);fill-opacity:1;font-size:12px;font-family:Arial, Helvetica, sans-serif;font-weight:400;font-style:normal;dominant-baseline:text-before-edge;text-decoration:rgb(208, 2, 27);">y</text></g></g></g><g><g><g><g><g><g><g transform="matrix(1,0,0,1,40.25,51)"><path transform="matrix(0.017,0,0,-0.017,0,0)" d="M478 35L444 67L292 -58L292 713L233 713L233 -58L82 67L47 35L263 -172Z" stroke="rgb(126,211,33)" stroke-opacity="1" stroke-width="8" fill="rgb(126,211,33)" fill-opacity="1"></path></g></g></g></g></g><g><text x="54.25" y="37.44999694824219" style="white-space:pre;stroke:none;fill:rgb(126,211,33);fill-opacity:1;font-size:15px;font-family:Arial, Helvetica, sans-serif;font-weight:400;font-style:normal;dominant-baseline:text-before-edge;text-decoration:rgb(126, 211, 33);">R</text></g></g></g><g><g><g><g><g><g><g transform="matrix(1,0,0,1,544.25,165)"><path transform="matrix(0.017,0,0,-0.017,0,0)" d="M478 35L444 67L292 -58L292 713L233 713L233 -58L82 67L47 35L263 -172Z" stroke="rgb(245,166,35)" stroke-opacity="1" stroke-width="8" fill="rgb(245,166,35)" fill-opacity="1"></path></g></g></g></g></g><g><text x="558.25" y="151.45001220703125" style="white-space:pre;stroke:none;fill:rgb(245,166,35);fill-opacity:1;font-size:15px;font-family:Arial, Helvetica, sans-serif;font-weight:400;font-style:normal;dominant-baseline:text-before-edge;text-decoration:rgb(245, 166, 35);">W</text></g></g></g><g><g><g><g><g><g><g transform="matrix(1,0,0,1,590.25,383)"><path transform="matrix(0.017,0,0,-0.017,0,0)" d="M478 506L262 713L47 506L81 474L233 599L233 -172L292 -172L292 599L443 474Z" stroke="rgb(74,144,226)" stroke-opacity="1" stroke-width="8" fill="rgb(74,144,226)" fill-opacity="1"></path></g></g></g></g></g><g><text x="604.25" y="369.45001220703125" style="white-space:pre;stroke:none;fill:rgb(74,144,226);fill-opacity:1;font-size:15px;font-family:Arial, Helvetica, sans-serif;font-weight:400;font-style:normal;dominant-baseline:text-before-edge;text-decoration:rgb(74, 144, 226);">R</text></g></g></g><g><g><g><g><g><g><g transform="matrix(1,0,0,1,487.25,277)"><path transform="matrix(0.017,0,0,-0.017,0,0)" d="M478 506L262 713L47 506L81 474L233 599L233 -172L292 -172L292 599L443 474Z" stroke="rgb(208,2,27)" stroke-opacity="1" stroke-width="8" fill="rgb(208,2,27)" fill-opacity="1"></path></g></g></g></g></g><g><text x="501.25" y="263.45001220703125" style="white-space:pre;stroke:none;fill:rgb(208,2,27);fill-opacity:1;font-size:15px;font-family:Arial, Helvetica, sans-serif;font-weight:400;font-style:normal;dominant-baseline:text-before-edge;text-decoration:rgb(208, 2, 27);">W</text></g></g></g><g><g><g><g><g><g><g transform="matrix(1,0,0,1,418.25,51)"><path transform="matrix(0.017,0,0,-0.017,0,0)" d="M478 506L262 713L47 506L81 474L233 599L233 -172L292 -172L292 599L443 474Z" stroke="rgb(208,2,27)" stroke-opacity="1" stroke-width="8" fill="rgb(208,2,27)" fill-opacity="1"></path></g></g></g></g></g><g><text x="432.25" y="37.44999694824219" style="white-space:pre;stroke:none;fill:rgb(208,2,27);fill-opacity:1;font-size:15px;font-family:Arial, Helvetica, sans-serif;font-weight:400;font-style:normal;dominant-baseline:text-before-edge;text-decoration:rgb(208, 2, 27);">W</text></g></g></g><g><g><g><g><g><g><g transform="matrix(1,0,0,1,219.25,74)"><path transform="matrix(0.017,0,0,-0.017,0,0)" d="M478 506L262 713L47 506L81 474L233 599L233 -172L292 -172L292 599L443 474Z" stroke="rgb(208,2,27)" stroke-opacity="1" stroke-width="8" fill="rgb(208,2,27)" fill-opacity="1"></path></g></g></g></g></g><g><text x="233.25" y="60.44999694824219" style="white-space:pre;stroke:none;fill:rgb(208,2,27);fill-opacity:1;font-size:15px;font-family:Arial, Helvetica, sans-serif;font-weight:400;font-style:normal;dominant-baseline:text-before-edge;text-decoration:rgb(208, 2, 27);">W</text></g></g></g><g><g><g><g><g><g><g transform="matrix(1,0,0,1,223.25,313)"><path transform="matrix(0.017,0,0,-0.017,0,0)" d="M478 506L262 713L47 506L81 474L233 599L233 -172L292 -172L292 599L443 474Z" stroke="rgb(208,2,27)" stroke-opacity="1" stroke-width="8" fill="rgb(208,2,27)" fill-opacity="1"></path></g></g></g></g></g><g><text x="237.25" y="299.45001220703125" style="white-space:pre;stroke:none;fill:rgb(208,2,27);fill-opacity:1;font-size:15px;font-family:Arial, Helvetica, sans-serif;font-weight:400;font-style:normal;dominant-baseline:text-before-edge;text-decoration:rgb(208, 2, 27);">W</text></g></g></g><g><g><g><g><g><g><g transform="matrix(1,0,0,1,591.25,47)"><path transform="matrix(0.017,0,0,-0.017,0,0)" d="M478 506L262 713L47 506L81 474L233 599L233 -172L292 -172L292 599L443 474Z" stroke="rgb(74,144,226)" stroke-opacity="1" stroke-width="8" fill="rgb(74,144,226)" fill-opacity="1"></path></g></g></g></g></g><g><text x="605.25" y="33.44999694824219" style="white-space:pre;stroke:none;fill:rgb(74,144,226);fill-opacity:1;font-size:15px;font-family:Arial, Helvetica, sans-serif;font-weight:400;font-style:normal;dominant-baseline:text-before-edge;text-decoration:rgb(74, 144, 226);">R</text></g></g></g><g><g><g><g><g><g><g transform="matrix(1,0,0,1,122.25,179)"><path transform="matrix(0.017,0,0,-0.017,0,0)" d="M478 506L262 713L47 506L81 474L233 599L233 -172L292 -172L292 599L443 474Z" stroke="rgb(74,144,226)" stroke-opacity="1" stroke-width="8" fill="rgb(74,144,226)" fill-opacity="1"></path></g></g></g></g></g><g><text x="136.25" y="165.45001220703125" style="white-space:pre;stroke:none;fill:rgb(74,144,226);fill-opacity:1;font-size:15px;font-family:Arial, Helvetica, sans-serif;font-weight:400;font-style:normal;dominant-baseline:text-before-edge;text-decoration:rgb(74, 144, 226);">R</text></g></g></g><g><g><g><g><g><g><g transform="matrix(1,0,0,1,263.25,346)"><path transform="matrix(0.017,0,0,-0.017,0,0)" d="M478 506L262 713L47 506L81 474L233 599L233 -172L292 -172L292 599L443 474Z" stroke="rgb(74,144,226)" stroke-opacity="1" stroke-width="8" fill="rgb(74,144,226)" fill-opacity="1"></path></g></g></g></g></g><g><text x="277.25" y="332.45001220703125" style="white-space:pre;stroke:none;fill:rgb(74,144,226);fill-opacity:1;font-size:15px;font-family:Arial, Helvetica, sans-serif;font-weight:400;font-style:normal;dominant-baseline:text-before-edge;text-decoration:rgb(74, 144, 226);">R</text></g></g></g><g><g><g><g><g><g><g transform="matrix(1,0,0,1,537.25,229)"><path transform="matrix(0.017,0,0,-0.017,0,0)" d="M478 35L444 67L292 -58L292 713L233 713L233 -58L82 67L47 35L263 -172Z" stroke="rgb(245,166,35)" stroke-opacity="1" stroke-width="8" fill="rgb(245,166,35)" fill-opacity="1"></path></g></g></g></g></g><g><text x="551.25" y="215.45001220703125" style="white-space:pre;stroke:none;fill:rgb(245,166,35);fill-opacity:1;font-size:15px;font-family:Arial, Helvetica, sans-serif;font-weight:400;font-style:normal;dominant-baseline:text-before-edge;text-decoration:rgb(245, 166, 35);">W</text></g></g></g><g><g><g><g><g><g><g transform="matrix(1,0,0,1,39.25,378)"><path transform="matrix(0.017,0,0,-0.017,0,0)" d="M478 35L444 67L292 -58L292 713L233 713L233 -58L82 67L47 35L263 -172Z" stroke="rgb(245,166,35)" stroke-opacity="1" stroke-width="8" fill="rgb(245,166,35)" fill-opacity="1"></path></g></g></g></g></g><g><text x="53.25" y="364.45001220703125" style="white-space:pre;stroke:none;fill:rgb(245,166,35);fill-opacity:1;font-size:15px;font-family:Arial, Helvetica, sans-serif;font-weight:400;font-style:normal;dominant-baseline:text-before-edge;text-decoration:rgb(245, 166, 35);">W</text></g></g></g><g><g><g><g><g><g><g transform="matrix(1,0,0,1,67.25,227)"><path transform="matrix(0.017,0,0,-0.017,0,0)" d="M478 35L444 67L292 -58L292 713L233 713L233 -58L82 67L47 35L263 -172Z" stroke="rgb(245,166,35)" stroke-opacity="1" stroke-width="8" fill="rgb(245,166,35)" fill-opacity="1"></path></g></g></g></g></g><g><text x="81.25" y="213.45001220703125" style="white-space:pre;stroke:none;fill:rgb(245,166,35);fill-opacity:1;font-size:15px;font-family:Arial, Helvetica, sans-serif;font-weight:400;font-style:normal;dominant-baseline:text-before-edge;text-decoration:rgb(245, 166, 35);">W</text></g></g></g><g><g><g><g><g><g><g transform="matrix(1,0,0,1,212.25,381)"><path transform="matrix(0.017,0,0,-0.017,0,0)" d="M478 35L444 67L292 -58L292 713L233 713L233 -58L82 67L47 35L263 -172Z" stroke="rgb(126,211,33)" stroke-opacity="1" stroke-width="8" fill="rgb(126,211,33)" fill-opacity="1"></path></g></g></g></g></g><g><text x="226.25" y="367.45001220703125" style="white-space:pre;stroke:none;fill:rgb(126,211,33);fill-opacity:1;font-size:15px;font-family:Arial, Helvetica, sans-serif;font-weight:400;font-style:normal;dominant-baseline:text-before-edge;text-decoration:rgb(126, 211, 33);">R</text></g></g></g><g><g><g><g><g><g><g transform="matrix(1,0,0,1,610.25,119)"><path transform="matrix(0.017,0,0,-0.017,0,0)" d="M478 35L444 67L292 -58L292 713L233 713L233 -58L82 67L47 35L263 -172Z" stroke="rgb(126,211,33)" stroke-opacity="1" stroke-width="8" fill="rgb(126,211,33)" fill-opacity="1"></path></g></g></g></g></g><g><text x="624.25" y="105.45001220703125" style="white-space:pre;stroke:none;fill:rgb(126,211,33);fill-opacity:1;font-size:15px;font-family:Arial, Helvetica, sans-serif;font-weight:400;font-style:normal;dominant-baseline:text-before-edge;text-decoration:rgb(126, 211, 33);">R</text></g></g></g><g><g><g><g><g><g><g transform="matrix(1,0,0,1,590.25,286)"><path transform="matrix(0.017,0,0,-0.017,0,0)" d="M478 35L444 67L292 -58L292 713L233 713L233 -58L82 67L47 35L263 -172Z" stroke="rgb(126,211,33)" stroke-opacity="1" stroke-width="8" fill="rgb(126,211,33)" fill-opacity="1"></path></g></g></g></g></g><g><text x="604.25" y="272.45001220703125" style="white-space:pre;stroke:none;fill:rgb(126,211,33);fill-opacity:1;font-size:15px;font-family:Arial, Helvetica, sans-serif;font-weight:400;font-style:normal;dominant-baseline:text-before-edge;text-decoration:rgb(126, 211, 33);">R</text></g></g></g><g><g><g><g><g><g><g transform="matrix(1,0,0,1,67.25,435)"><path transform="matrix(0.017,0,0,-0.017,0,0)" d="M478 35L444 67L292 -58L292 713L233 713L233 -58L82 67L47 35L263 -172Z" stroke="rgb(245,166,35)" stroke-opacity="1" stroke-width="8" fill="rgb(245,166,35)" fill-opacity="1"></path></g></g></g></g></g><g><text x="81.25" y="421.45001220703125" style="white-space:pre;stroke:none;fill:rgb(245,166,35);fill-opacity:1;font-size:15px;font-family:Arial, Helvetica, sans-serif;font-weight:400;font-style:normal;dominant-baseline:text-before-edge;text-decoration:rgb(245, 166, 35);">W</text></g></g></g><g><g><g><g><g><g><g transform="matrix(1,0,0,1,67.25,465)"><path transform="matrix(0.017,0,0,-0.017,0,0)" d="M478 35L444 67L292 -58L292 713L233 713L233 -58L82 67L47 35L263 -172Z" stroke="rgb(126,211,33)" stroke-opacity="1" stroke-width="8" fill="rgb(126,211,33)" fill-opacity="1"></path></g></g></g></g></g><g><text x="81.25" y="451.45001220703125" style="white-space:pre;stroke:none;fill:rgb(126,211,33);fill-opacity:1;font-size:15px;font-family:Arial, Helvetica, sans-serif;font-weight:400;font-style:normal;dominant-baseline:text-before-edge;text-decoration:rgb(126, 211, 33);">R</text></g></g></g><g><g><g><g><g><g><g transform="matrix(1,0,0,1,67.25,524)"><path transform="matrix(0.017,0,0,-0.017,0,0)" d="M478 506L262 713L47 506L81 474L233 599L233 -172L292 -172L292 599L443 474Z" stroke="rgb(74,144,226)" stroke-opacity="1" stroke-width="8" fill="rgb(74,144,226)" fill-opacity="1"></path></g></g></g></g></g><g><text x="81.25" y="510.45001220703125" style="white-space:pre;stroke:none;fill:rgb(74,144,226);fill-opacity:1;font-size:15px;font-family:Arial, Helvetica, sans-serif;font-weight:400;font-style:normal;dominant-baseline:text-before-edge;text-decoration:rgb(74, 144, 226);">R</text></g></g></g><g><g><g><g><g><g><g transform="matrix(1,0,0,1,67.25,494)"><path transform="matrix(0.017,0,0,-0.017,0,0)" d="M478 506L262 713L47 506L81 474L233 599L233 -172L292 -172L292 599L443 474Z" stroke="rgb(208,2,27)" stroke-opacity="1" stroke-width="8" fill="rgb(208,2,27)" fill-opacity="1"></path></g></g></g></g></g><g><text x="81.25" y="480.45001220703125" style="white-space:pre;stroke:none;fill:rgb(208,2,27);fill-opacity:1;font-size:15px;font-family:Arial, Helvetica, sans-serif;font-weight:400;font-style:normal;dominant-baseline:text-before-edge;text-decoration:rgb(208, 2, 27);">W</text></g></g></g><g><g><g><text x="155.1500244140625" y="431.01666259765625" style="white-space:pre;stroke:none;fill:rgb(245,166,35);fill-opacity:1;font-size:15px;font-family:Arial, Helvetica, sans-serif;font-weight:400;font-style:normal;dominant-baseline:text-before-edge;text-decoration:rgb(245, 166, 35);">child write</text></g></g></g><g><g><g><text x="155.1500244140625" y="461.01666259765625" style="white-space:pre;stroke:none;fill:rgb(126,211,33);fill-opacity:1;font-size:15px;font-family:Arial, Helvetica, sans-serif;font-weight:400;font-style:normal;dominant-baseline:text-before-edge;text-decoration:rgb(126, 211, 33);">child read</text></g></g></g><g><g><g><text x="155.1500244140625" y="491.01666259765625" style="white-space:pre;stroke:none;fill:rgb(208,2,27);fill-opacity:1;font-size:15px;font-family:Arial, Helvetica, sans-serif;font-weight:400;font-style:normal;dominant-baseline:text-before-edge;text-decoration:rgb(208, 2, 27);">foreign write</text></g></g></g><g><g><g><text x="155.1500244140625" y="521.0166625976562" style="white-space:pre;stroke:none;fill:rgb(74,144,226);fill-opacity:1;font-size:15px;font-family:Arial, Helvetica, sans-serif;font-weight:400;font-style:normal;dominant-baseline:text-before-edge;text-decoration:rgb(74, 144, 226);">foreign read</text></g></g></g><g><g><g><g transform="matrix(1,0,0,1,88.20001220703125,112.66668701171875)"><path transform="matrix(0.0105,0,0,-0.0105,0,0)" d="M25 400C25 370 50 370 65 370L153 370L153 126C153 30 221 -6 294 -6C368 -6 449 37 449 126C449 144 449 165 414 165C381 165 380 144 380 127C379 65 322 55 299 55C222 55 222 107 222 132L222 370L386 370C401 370 426 370 426 400C426 431 402 431 386 431L222 431L222 513C222 532 222 554 188 554C153 554 153 533 153 513L153 431L66 431C50 431 25 431 25 400ZM551 400C551 370 576 370 591 370L622 370L764 13C768 3 768 1 768 0C768 -2 743 -84 730 -109C701 -164 665 -166 650 -167C650 -166 655 -158 655 -145C655 -120 637 -102 612 -102C585 -102 568 -120 568 -146C568 -188 602 -228 651 -228C751 -228 796 -96 800 -85L955 370L985 370C1000 370 1025 370 1025 400C1025 431 1001 431 985 431L868 431C853 431 828 431 828 401C828 370 852 370 868 370L896 370L824 157C811 120 805 102 798 71L797 71C792 90 783 111 776 130L683 370L708 370C723 370 748 370 748 400C748 431 724 431 708 431L591 431C575 431 551 431 551 400ZM1106 -60C1106 -71 1111 -94 1147 -95L1475 -95C1511 -95 1518 -73 1518 -61C1518 -51 1513 -25 1477 -25L1148 -25C1110 -25 1106 -51 1106 -60ZM1784 562C1784 534 1806 512 1834 512C1862 512 1884 534 1884 562C1884 590 1862 612 1834 612C1806 612 1784 590 1784 562ZM1653 30C1653 0 1679 0 1694 0L1989 0C2004 0 2030 0 2030 30C2030 61 2004 61 1989 61L1884 61L1884 390C1884 421 1878 431 1844 431L1702 431C1687 431 1661 431 1661 401C1661 370 1687 370 1702 370L1815 370L1815 61L1694 61C1678 61 1653 61 1653 30ZM2172 35C2172 19 2172 -6 2202 -6C2211 -6 2227 -5 2239 32C2288 -4 2341 -6 2369 -6C2527 -6 2559 77 2559 125C2559 229 2430 250 2398 255C2375 259 2355 262 2330 267C2301 271 2233 283 2233 322C2233 348 2265 379 2360 379C2443 379 2457 349 2460 323C2461 306 2463 289 2494 289C2529 289 2529 310 2529 330L2529 399C2529 415 2529 440 2499 440C2475 440 2471 426 2469 419C2425 440 2381 440 2362 440C2195 440 2172 358 2172 322C2172 230 2277 213 2369 199C2418 191 2498 178 2498 125C2498 88 2461 55 2370 55C2323 55 2267 66 2242 144C2237 162 2233 173 2207 173C2172 173 2172 152 2172 132ZM2681 -60C2681 -71 2686 -94 2722 -95L3050 -95C3086 -95 3093 -73 3093 -61C3093 -51 3088 -25 3052 -25L2723 -25C2685 -25 2681 -51 2681 -60ZM3192 31C3192 0 3218 0 3233 0L3504 0C3519 0 3545 0 3545 30C3545 61 3519 61 3504 61L3403 61L3403 370L3525 370C3540 370 3565 370 3565 400C3565 431 3541 431 3525 431L3403 431L3403 478C3403 556 3470 556 3500 556C3500 552 3509 513 3544 513C3564 513 3587 529 3587 557C3587 617 3507 617 3491 617C3411 617 3334 571 3334 484L3334 431L3234 431C3218 431 3193 431 3193 400C3193 370 3218 370 3233 370L3334 370L3334 61L3233 61C3218 61 3192 61 3192 31ZM3707 31C3707 0 3731 0 3747 0L4008 0C4023 0 4049 0 4049 30C4049 61 4023 61 4008 61L3897 61L3897 186C3897 280 3956 376 4077 376C4078 352 4095 332 4120 332C4142 332 4162 348 4162 375C4162 395 4150 437 4067 437C4016 437 3952 419 3897 356L3897 390C3897 421 3891 431 3857 431L3747 431C3732 431 3707 431 3707 401C3707 370 3731 370 3747 370L3828 370L3828 61L3747 61C3732 61 3707 61 3707 31ZM4255 217C4255 95 4356 -6 4485 -6C4617 -6 4664 84 4664 109C4664 137 4635 137 4629 137C4611 137 4603 134 4596 115C4574 64 4520 55 4492 55C4417 55 4342 105 4326 191L4624 191C4645 191 4664 191 4664 228C4664 342 4600 440 4470 440C4351 440 4255 340 4255 217ZM4327 251C4341 324 4400 379 4470 379C4522 379 4584 354 4593 251ZM4780 217C4780 95 4881 -6 5010 -6C5142 -6 5189 84 5189 109C5189 137 5160 137 5154 137C5136 137 5128 134 5121 115C5099 64 5045 55 5017 55C4942 55 4867 105 4851 191L5149 191C5170 191 5189 191 5189 228C5189 342 5125 440 4995 440C4876 440 4780 340 4780 217ZM4852 251C4866 324 4925 379 4995 379C5047 379 5109 354 5118 251ZM5283 34C5283 0 5305 0 5324 0L5703 0C5725 6 5725 26 5725 41L5725 99C5725 118 5725 140 5691 140C5656 140 5656 119 5656 99L5656 61L5387 61L5699 357C5720 377 5721 380 5721 397C5721 431 5699 431 5680 431L5340 431C5307 431 5299 423 5299 390L5299 344C5299 325 5299 303 5333 303C5368 303 5368 324 5368 344L5368 370L5617 370L5305 74C5284 54 5283 51 5283 34ZM5830 217C5830 95 5931 -6 6060 -6C6192 -6 6239 84 6239 109C6239 137 6210 137 6204 137C6186 137 6178 134 6171 115C6149 64 6095 55 6067 55C5992 55 5917 105 5901 191L6199 191C6220 191 6239 191 6239 228C6239 342 6175 440 6045 440C5926 440 5830 340 5830 217ZM5902 251C5916 324 5975 379 6045 379C6097 379 6159 354 6168 251ZM6499 369C6499 333 6529 306 6562 306C6599 306 6624 338 6624 369C6624 405 6595 431 6562 431C6525 431 6499 400 6499 369ZM6499 63C6499 27 6529 0 6562 0C6599 0 6624 32 6624 63C6624 99 6595 125 6562 125C6525 125 6499 94 6499 63ZM7362 580C7362 550 7388 550 7402 550L7447 550L7447 41C7447 21 7447 0 7482 0C7516 0 7516 20 7516 45C7557 3 7600 -6 7632 -6C7741 -6 7838 89 7838 216C7838 339 7749 437 7643 437C7595 437 7550 419 7516 388L7516 570C7516 601 7510 611 7476 611L7403 611C7387 611 7362 611 7362 580ZM7516 191L7516 264C7516 323 7574 376 7637 376C7711 376 7769 303 7769 216C7769 120 7699 55 7629 55C7551 55 7516 143 7516 191ZM7932 216C7932 89 8027 -6 8137 -6C8247 -6 8342 90 8342 216C8342 341 8249 440 8137 440C8025 440 7932 341 7932 216ZM8001 223C8001 314 8066 379 8137 379C8209 379 8273 314 8273 223C8273 130 8211 55 8137 55C8063 55 8001 130 8001 223ZM8457 216C8457 89 8552 -6 8662 -6C8772 -6 8867 90 8867 216C8867 341 8774 440 8662 440C8550 440 8457 341 8457 216ZM8526 223C8526 314 8591 379 8662 379C8734 379 8798 314 8798 223C8798 130 8736 55 8662 55C8588 55 8526 130 8526 223ZM8983 30C8983 0 9009 0 9023 0L9352 0C9367 0 9392 0 9392 30C9392 61 9368 61 9352 61L9222 61L9222 570C9222 601 9216 611 9182 611L9024 611C9008 611 8983 611 8983 580C8983 550 9009 550 9023 550L9153 550L9153 61L9024 61C9008 61 8983 61 8983 30Z" stroke="rgb(155,155,155)" stroke-opacity="1" stroke-width="8" fill="rgb(155,155,155)" fill-opacity="1"></path></g></g></g></g><g><g><g><g transform="matrix(1,0,0,1,112.1500244140625,86.45001220703125)"><path transform="matrix(0.015,0,0,-0.015,0,0)" d="M22 30C22 0 47 0 62 0L181 0C196 0 221 0 221 30C221 61 197 61 181 61L156 61L156 275L234 275C253 275 283 275 315 247C337 226 337 204 337 162C337 97 337 67 356 35C373 5 401 -11 435 -11C498 -11 522 55 522 93C522 125 498 125 487 125C477 125 454 125 453 95C453 87 451 50 434 50C406 50 406 96 406 149C406 212 406 220 397 243C385 272 362 293 348 304C414 341 433 402 433 443C433 529 357 611 239 611L62 611C46 611 22 611 22 580C22 550 47 550 62 550L87 550L87 61L62 61C46 61 22 61 22 30ZM156 336L156 550L228 550C320 550 364 491 364 443C364 394 319 336 228 336ZM580 217C580 95 681 -6 810 -6C942 -6 989 84 989 109C989 137 960 137 954 137C936 137 928 134 921 115C899 64 845 55 817 55C742 55 667 105 651 191L949 191C970 191 989 191 989 228C989 342 925 440 795 440C676 440 580 340 580 217ZM652 251C666 324 725 379 795 379C847 379 909 354 918 251ZM1122 35C1122 19 1122 -6 1152 -6C1161 -6 1177 -5 1189 32C1238 -4 1291 -6 1319 -6C1477 -6 1509 77 1509 125C1509 229 1380 250 1348 255C1325 259 1305 262 1280 267C1251 271 1183 283 1183 322C1183 348 1215 379 1310 379C1393 379 1407 349 1410 323C1411 306 1413 289 1444 289C1479 289 1479 310 1479 330L1479 399C1479 415 1479 440 1449 440C1425 440 1421 426 1419 419C1375 440 1331 440 1312 440C1145 440 1122 358 1122 322C1122 230 1227 213 1319 199C1368 191 1448 178 1448 125C1448 88 1411 55 1320 55C1273 55 1217 66 1192 144C1187 162 1183 173 1157 173C1122 173 1122 152 1122 132ZM1630 217C1630 95 1731 -6 1860 -6C1992 -6 2039 84 2039 109C2039 137 2010 137 2004 137C1986 137 1978 134 1971 115C1949 64 1895 55 1867 55C1792 55 1717 105 1701 191L1999 191C2020 191 2039 191 2039 228C2039 342 1975 440 1845 440C1726 440 1630 340 1630 217ZM1702 251C1716 324 1775 379 1845 379C1897 379 1959 354 1968 251ZM2132 31C2132 0 2156 0 2172 0L2433 0C2448 0 2474 0 2474 30C2474 61 2448 61 2433 61L2322 61L2322 186C2322 280 2381 376 2502 376C2503 352 2520 332 2545 332C2567 332 2587 348 2587 375C2587 395 2575 437 2492 437C2441 437 2377 419 2322 356L2322 390C2322 421 2316 431 2282 431L2172 431C2157 431 2132 431 2132 401C2132 370 2156 370 2172 370L2253 370L2253 61L2172 61C2157 61 2132 61 2132 31ZM2649 400C2649 370 2674 370 2689 370L2719 370L2834 30C2846 -4 2866 -4 2887 -4C2906 -4 2929 -4 2940 29L3055 370L3085 370C3100 370 3125 370 3125 400C3125 431 3101 431 3085 431L2968 431C2953 431 2928 431 2928 401C2928 370 2952 370 2968 370L2996 370L2887 48L2778 370L2806 370C2821 370 2846 370 2846 400C2846 431 2822 431 2806 431L2689 431C2673 431 2649 431 2649 400ZM3205 217C3205 95 3306 -6 3435 -6C3567 -6 3614 84 3614 109C3614 137 3585 137 3579 137C3561 137 3553 134 3546 115C3524 64 3470 55 3442 55C3367 55 3292 105 3276 191L3574 191C3595 191 3614 191 3614 228C3614 342 3550 440 3420 440C3301 440 3205 340 3205 217ZM3277 251C3291 324 3350 379 3420 379C3472 379 3534 354 3543 251ZM3711 215C3711 91 3801 -6 3907 -6C3963 -6 4005 21 4033 50C4033 14 4033 0 4073 0L4146 0C4162 0 4187 0 4187 31C4187 61 4161 61 4147 61L4102 61L4102 570C4102 601 4096 611 4062 611L3989 611C3973 611 3948 611 3948 580C3948 550 3974 550 3988 550L4033 550L4033 392C4000 421 3959 437 3916 437C3807 437 3711 342 3711 215ZM3780 215C3780 311 3850 376 3920 376C3984 376 4033 320 4033 265L4033 194C4033 138 3988 55 3911 55C3840 55 3780 126 3780 215Z" stroke="rgb(155,155,155)" stroke-opacity="1" stroke-width="8" fill="rgb(155,155,155)" fill-opacity="1"></path></g></g></g></g><g><g><g><g transform="matrix(1,0,0,1,120.1500244140625,334.45001220703125)"><path transform="matrix(0.015,0,0,-0.015,0,0)" d="M27 30C27 0 53 0 70 0L172 0C190 0 214 0 214 30C214 61 194 61 158 61L181 165L343 165L366 61C330 61 310 61 310 30C310 0 334 0 352 0L454 0C471 0 497 0 497 30C497 43 492 53 480 58C474 61 452 61 437 61L316 584C307 622 293 623 262 623C233 623 217 623 208 585L87 61C73 61 50 61 44 59C33 53 27 43 27 30ZM196 226L262 540L328 226ZM598 216C598 96 692 -6 818 -6C957 -6 991 92 991 109C991 137 962 137 956 137C940 137 930 135 923 115C917 102 898 55 824 55C739 55 667 125 667 216C667 264 695 379 830 379C851 379 890 379 890 370C891 335 910 321 934 321C958 321 979 338 979 367C979 440 875 440 830 440C658 440 598 304 598 216ZM1075 400C1075 370 1100 370 1115 370L1203 370L1203 126C1203 30 1271 -6 1344 -6C1418 -6 1499 37 1499 126C1499 144 1499 165 1464 165C1431 165 1430 144 1430 127C1429 65 1372 55 1349 55C1272 55 1272 107 1272 132L1272 370L1436 370C1451 370 1476 370 1476 400C1476 431 1452 431 1436 431L1272 431L1272 513C1272 532 1272 554 1238 554C1203 554 1203 533 1203 513L1203 431L1116 431C1100 431 1075 431 1075 400ZM1784 562C1784 534 1806 512 1834 512C1862 512 1884 534 1884 562C1884 590 1862 612 1834 612C1806 612 1784 590 1784 562ZM1653 30C1653 0 1679 0 1694 0L1989 0C2004 0 2030 0 2030 30C2030 61 2004 61 1989 61L1884 61L1884 390C1884 421 1878 431 1844 431L1702 431C1687 431 1661 431 1661 401C1661 370 1687 370 1702 370L1815 370L1815 61L1694 61C1678 61 1653 61 1653 30ZM2124 400C2124 370 2149 370 2164 370L2194 370L2309 30C2321 -4 2341 -4 2362 -4C2381 -4 2404 -4 2415 29L2530 370L2560 370C2575 370 2600 370 2600 400C2600 431 2576 431 2560 431L2443 431C2428 431 2403 431 2403 401C2403 370 2427 370 2443 370L2471 370L2362 48L2253 370L2281 370C2296 370 2321 370 2321 400C2321 431 2297 431 2281 431L2164 431C2148 431 2124 431 2124 400ZM2680 217C2680 95 2781 -6 2910 -6C3042 -6 3089 84 3089 109C3089 137 3060 137 3054 137C3036 137 3028 134 3021 115C2999 64 2945 55 2917 55C2842 55 2767 105 2751 191L3049 191C3070 191 3089 191 3089 228C3089 342 3025 440 2895 440C2776 440 2680 340 2680 217ZM2752 251C2766 324 2825 379 2895 379C2947 379 3009 354 3018 251Z" stroke="rgb(155,155,155)" stroke-opacity="1" stroke-width="8" fill="rgb(155,155,155)" fill-opacity="1"></path></g></g></g></g><g><g><g><g transform="matrix(1,0,0,1,492.1500244140625,94.45001220703125)"><path transform="matrix(0.015,0,0,-0.015,0,0)" d="M19 30C19 0 45 0 60 0L266 0C397 0 485 140 485 301C485 461 399 611 266 611L60 611C44 611 19 611 19 580C19 550 45 550 60 550L82 550L82 61L60 61C44 61 19 61 19 30ZM151 61L151 550L247 550C360 550 416 417 416 301C416 184 358 61 247 61ZM734 562C734 534 756 512 784 512C812 512 834 534 834 562C834 590 812 612 784 612C756 612 734 590 734 562ZM603 30C603 0 629 0 644 0L939 0C954 0 980 0 980 30C980 61 954 61 939 61L834 61L834 390C834 421 828 431 794 431L652 431C637 431 611 431 611 401C611 370 637 370 652 370L765 370L765 61L644 61C628 61 603 61 603 30ZM1122 35C1122 19 1122 -6 1152 -6C1161 -6 1177 -5 1189 32C1238 -4 1291 -6 1319 -6C1477 -6 1509 77 1509 125C1509 229 1380 250 1348 255C1325 259 1305 262 1280 267C1251 271 1183 283 1183 322C1183 348 1215 379 1310 379C1393 379 1407 349 1410 323C1411 306 1413 289 1444 289C1479 289 1479 310 1479 330L1479 399C1479 415 1479 440 1449 440C1425 440 1421 426 1419 419C1375 440 1331 440 1312 440C1145 440 1122 358 1122 322C1122 230 1227 213 1319 199C1368 191 1448 178 1448 125C1448 88 1411 55 1320 55C1273 55 1217 66 1192 144C1187 162 1183 173 1157 173C1122 173 1122 152 1122 132ZM1630 128C1630 59 1693 -6 1795 -6C1832 -6 1894 1 1941 32C1963 1 2011 0 2049 0C2077 0 2099 0 2099 31C2099 61 2074 61 2059 61C2017 61 2007 66 1999 69L1999 285C1999 356 1945 440 1801 440C1758 440 1656 440 1656 367C1656 337 1677 321 1701 321C1716 321 1744 330 1745 367C1745 375 1746 376 1766 378C1780 379 1793 379 1802 379C1878 379 1930 348 1930 277C1753 274 1630 224 1630 128ZM1699 128C1699 177 1785 214 1930 218L1930 134C1930 111 1930 90 1891 72C1855 55 1810 55 1802 55C1740 55 1699 89 1699 128ZM2112 580C2112 550 2138 550 2152 550L2197 550L2197 41C2197 21 2197 0 2232 0C2266 0 2266 20 2266 45C2307 3 2350 -6 2382 -6C2491 -6 2588 89 2588 216C2588 339 2499 437 2393 437C2345 437 2300 419 2266 388L2266 570C2266 601 2260 611 2226 611L2153 611C2137 611 2112 611 2112 580ZM2266 191L2266 264C2266 323 2324 376 2387 376C2461 376 2519 303 2519 216C2519 120 2449 55 2379 55C2301 55 2266 143 2266 191ZM2683 30C2683 0 2709 0 2723 0L3052 0C3067 0 3092 0 3092 30C3092 61 3068 61 3052 61L2922 61L2922 570C2922 601 2916 611 2882 611L2724 611C2708 611 2683 611 2683 580C2683 550 2709 550 2723 550L2853 550L2853 61L2724 61C2708 61 2683 61 2683 30ZM3205 217C3205 95 3306 -6 3435 -6C3567 -6 3614 84 3614 109C3614 137 3585 137 3579 137C3561 137 3553 134 3546 115C3524 64 3470 55 3442 55C3367 55 3292 105 3276 191L3574 191C3595 191 3614 191 3614 228C3614 342 3550 440 3420 440C3301 440 3205 340 3205 217ZM3277 251C3291 324 3350 379 3420 379C3472 379 3534 354 3543 251ZM3711 215C3711 91 3801 -6 3907 -6C3963 -6 4005 21 4033 50C4033 14 4033 0 4073 0L4146 0C4162 0 4187 0 4187 31C4187 61 4161 61 4147 61L4102 61L4102 570C4102 601 4096 611 4062 611L3989 611C3973 611 3948 611 3948 580C3948 550 3974 550 3988 550L4033 550L4033 392C4000 421 3959 437 3916 437C3807 437 3711 342 3711 215ZM3780 215C3780 311 3850 376 3920 376C3984 376 4033 320 4033 265L4033 194C4033 138 3988 55 3911 55C3840 55 3780 126 3780 215Z" stroke="rgb(155,155,155)" stroke-opacity="1" stroke-width="8" fill="rgb(155,155,155)" fill-opacity="1"></path></g></g></g></g><g><g><g><g transform="matrix(1,0,0,1,500.1500244140625,334.45001220703125)"><path transform="matrix(0.015,0,0,-0.015,0,0)" d="M28 30C28 0 54 0 69 0L223 0C238 0 263 0 263 30C263 61 239 61 223 61L171 61L171 275L307 275C307 234 307 218 342 218C376 218 376 240 376 259L376 352C376 371 376 393 342 393C307 393 307 377 307 336L171 336L171 550L421 550L421 497C421 478 421 456 455 456C490 456 490 477 490 497L490 570C490 601 484 611 450 611L69 611C53 611 28 611 28 580C28 550 54 550 69 550L102 550L102 61L69 61C53 61 28 61 28 30ZM557 31C557 0 581 0 597 0L858 0C873 0 899 0 899 30C899 61 873 61 858 61L747 61L747 186C747 280 806 376 927 376C928 352 945 332 970 332C992 332 1012 348 1012 375C1012 395 1000 437 917 437C866 437 802 419 747 356L747 390C747 421 741 431 707 431L597 431C582 431 557 431 557 401C557 370 581 370 597 370L678 370L678 61L597 61C582 61 557 61 557 31ZM1107 216C1107 89 1202 -6 1312 -6C1422 -6 1517 90 1517 216C1517 341 1424 440 1312 440C1200 440 1107 341 1107 216ZM1176 223C1176 314 1241 379 1312 379C1384 379 1448 314 1448 223C1448 130 1386 55 1312 55C1238 55 1176 130 1176 223ZM1608 34C1608 0 1630 0 1649 0L2028 0C2050 6 2050 26 2050 41L2050 99C2050 118 2050 140 2016 140C1981 140 1981 119 1981 99L1981 61L1712 61L2024 357C2045 377 2046 380 2046 397C2046 431 2024 431 2005 431L1665 431C1632 431 1624 423 1624 390L1624 344C1624 325 1624 303 1658 303C1693 303 1693 324 1693 344L1693 370L1942 370L1630 74C1609 54 1608 51 1608 34ZM2155 217C2155 95 2256 -6 2385 -6C2517 -6 2564 84 2564 109C2564 137 2535 137 2529 137C2511 137 2503 134 2496 115C2474 64 2420 55 2392 55C2317 55 2242 105 2226 191L2524 191C2545 191 2564 191 2564 228C2564 342 2500 440 2370 440C2251 440 2155 340 2155 217ZM2227 251C2241 324 2300 379 2370 379C2422 379 2484 354 2493 251ZM2637 30C2637 0 2663 0 2677 0L2836 0C2850 0 2876 0 2876 30C2876 61 2851 61 2835 61L2791 61L2791 238C2791 338 2865 376 2916 376C2969 376 2983 348 2983 288L2983 61L2944 61C2928 61 2903 61 2903 30C2903 0 2930 0 2944 0L3097 0C3111 0 3137 0 3137 30C3137 61 3112 61 3096 61L3052 61L3052 293C3052 394 3001 437 2922 437C2855 437 2810 403 2791 384C2791 416 2791 431 2751 431L2678 431C2662 431 2637 431 2637 400C2637 370 2663 370 2677 370L2722 370L2722 61L2678 61C2662 61 2637 61 2637 30Z" stroke="rgb(155,155,155)" stroke-opacity="1" stroke-width="8" fill="rgb(155,155,155)" fill-opacity="1"></path></g></g></g></g><g><g><g><text x="22.1500244140625" y="120.066650390625" style="white-space:pre;stroke:none;fill:rgb(189,16,224);fill-opacity:1;font-size:12px;font-family:Arial, Helvetica, sans-serif;font-weight:400;font-style:normal;dominant-baseline:text-before-edge;text-decoration:rgb(189, 16, 224);">Entry point</text></g></g><g><g><text x="22.1500244140625" y="136.86666870117188" style="white-space:pre;stroke:none;fill:rgb(189,16,224);fill-opacity:1;font-size:12px;font-family:Arial, Helvetica, sans-serif;font-weight:400;font-style:normal;dominant-baseline:text-before-edge;text-decoration:rgb(189, 16, 224);">for mutable</text></g></g><g><g><text x="22.1500244140625" y="153.66668701171875" style="white-space:pre;stroke:none;fill:rgb(189,16,224);fill-opacity:1;font-size:12px;font-family:Arial, Helvetica, sans-serif;font-weight:400;font-style:normal;dominant-baseline:text-before-edge;text-decoration:rgb(189, 16, 224);">references</text></g></g></g><g><g><g><text x="492.1500244140625" y="380.066650390625" style="white-space:pre;stroke:none;fill:rgb(189,16,224);fill-opacity:1;font-size:12px;font-family:Arial, Helvetica, sans-serif;font-weight:400;font-style:normal;dominant-baseline:text-before-edge;text-decoration:rgb(189, 16, 224);">Entry point</text></g></g><g><g><text x="492.1500244140625" y="396.86669921875" style="white-space:pre;stroke:none;fill:rgb(189,16,224);fill-opacity:1;font-size:12px;font-family:Arial, Helvetica, sans-serif;font-weight:400;font-style:normal;dominant-baseline:text-before-edge;text-decoration:rgb(189, 16, 224);">for shared</text></g></g><g><g><text x="492.1500244140625" y="413.66668701171875" style="white-space:pre;stroke:none;fill:rgb(189,16,224);fill-opacity:1;font-size:12px;font-family:Arial, Helvetica, sans-serif;font-weight:400;font-style:normal;dominant-baseline:text-before-edge;text-decoration:rgb(189, 16, 224);">references</text></g></g></g><g><g><g><g transform="matrix(1,0,0,1,233.1500244140625,128.45001220703125)"><path transform="matrix(0.015,0,0,-0.015,0,0)" d="M25 400C25 370 50 370 65 370L153 370L153 126C153 30 221 -6 294 -6C368 -6 449 37 449 126C449 144 449 165 414 165C381 165 380 144 380 127C379 65 322 55 299 55C222 55 222 107 222 132L222 370L386 370C401 370 426 370 426 400C426 431 402 431 386 431L222 431L222 513C222 532 222 554 188 554C153 554 153 533 153 513L153 431L66 431C50 431 25 431 25 400ZM551 400C551 370 576 370 591 370L622 370L764 13C768 3 768 1 768 0C768 -2 743 -84 730 -109C701 -164 665 -166 650 -167C650 -166 655 -158 655 -145C655 -120 637 -102 612 -102C585 -102 568 -120 568 -146C568 -188 602 -228 651 -228C751 -228 796 -96 800 -85L955 370L985 370C1000 370 1025 370 1025 400C1025 431 1001 431 985 431L868 431C853 431 828 431 828 401C828 370 852 370 868 370L896 370L824 157C811 120 805 102 798 71L797 71C792 90 783 111 776 130L683 370L708 370C723 370 748 370 748 400C748 431 724 431 708 431L591 431C575 431 551 431 551 400ZM1106 -60C1106 -71 1111 -94 1147 -95L1475 -95C1511 -95 1518 -73 1518 -61C1518 -51 1513 -25 1477 -25L1148 -25C1110 -25 1106 -51 1106 -60ZM1784 562C1784 534 1806 512 1834 512C1862 512 1884 534 1884 562C1884 590 1862 612 1834 612C1806 612 1784 590 1784 562ZM1653 30C1653 0 1679 0 1694 0L1989 0C2004 0 2030 0 2030 30C2030 61 2004 61 1989 61L1884 61L1884 390C1884 421 1878 431 1844 431L1702 431C1687 431 1661 431 1661 401C1661 370 1687 370 1702 370L1815 370L1815 61L1694 61C1678 61 1653 61 1653 30ZM2172 35C2172 19 2172 -6 2202 -6C2211 -6 2227 -5 2239 32C2288 -4 2341 -6 2369 -6C2527 -6 2559 77 2559 125C2559 229 2430 250 2398 255C2375 259 2355 262 2330 267C2301 271 2233 283 2233 322C2233 348 2265 379 2360 379C2443 379 2457 349 2460 323C2461 306 2463 289 2494 289C2529 289 2529 310 2529 330L2529 399C2529 415 2529 440 2499 440C2475 440 2471 426 2469 419C2425 440 2381 440 2362 440C2195 440 2172 358 2172 322C2172 230 2277 213 2369 199C2418 191 2498 178 2498 125C2498 88 2461 55 2370 55C2323 55 2267 66 2242 144C2237 162 2233 173 2207 173C2172 173 2172 152 2172 132ZM2681 -60C2681 -71 2686 -94 2722 -95L3050 -95C3086 -95 3093 -73 3093 -61C3093 -51 3088 -25 3052 -25L2723 -25C2685 -25 2681 -51 2681 -60ZM3192 31C3192 0 3218 0 3233 0L3504 0C3519 0 3545 0 3545 30C3545 61 3519 61 3504 61L3403 61L3403 370L3525 370C3540 370 3565 370 3565 400C3565 431 3541 431 3525 431L3403 431L3403 478C3403 556 3470 556 3500 556C3500 552 3509 513 3544 513C3564 513 3587 529 3587 557C3587 617 3507 617 3491 617C3411 617 3334 571 3334 484L3334 431L3234 431C3218 431 3193 431 3193 400C3193 370 3218 370 3233 370L3334 370L3334 61L3233 61C3218 61 3192 61 3192 31ZM3707 31C3707 0 3731 0 3747 0L4008 0C4023 0 4049 0 4049 30C4049 61 4023 61 4008 61L3897 61L3897 186C3897 280 3956 376 4077 376C4078 352 4095 332 4120 332C4142 332 4162 348 4162 375C4162 395 4150 437 4067 437C4016 437 3952 419 3897 356L3897 390C3897 421 3891 431 3857 431L3747 431C3732 431 3707 431 3707 401C3707 370 3731 370 3747 370L3828 370L3828 61L3747 61C3732 61 3707 61 3707 31ZM4255 217C4255 95 4356 -6 4485 -6C4617 -6 4664 84 4664 109C4664 137 4635 137 4629 137C4611 137 4603 134 4596 115C4574 64 4520 55 4492 55C4417 55 4342 105 4326 191L4624 191C4645 191 4664 191 4664 228C4664 342 4600 440 4470 440C4351 440 4255 340 4255 217ZM4327 251C4341 324 4400 379 4470 379C4522 379 4584 354 4593 251ZM4780 217C4780 95 4881 -6 5010 -6C5142 -6 5189 84 5189 109C5189 137 5160 137 5154 137C5136 137 5128 134 5121 115C5099 64 5045 55 5017 55C4942 55 4867 105 4851 191L5149 191C5170 191 5189 191 5189 228C5189 342 5125 440 4995 440C4876 440 4780 340 4780 217ZM4852 251C4866 324 4925 379 4995 379C5047 379 5109 354 5118 251ZM5283 34C5283 0 5305 0 5324 0L5703 0C5725 6 5725 26 5725 41L5725 99C5725 118 5725 140 5691 140C5656 140 5656 119 5656 99L5656 61L5387 61L5699 357C5720 377 5721 380 5721 397C5721 431 5699 431 5680 431L5340 431C5307 431 5299 423 5299 390L5299 344C5299 325 5299 303 5333 303C5368 303 5368 324 5368 344L5368 370L5617 370L5305 74C5284 54 5283 51 5283 34ZM5830 217C5830 95 5931 -6 6060 -6C6192 -6 6239 84 6239 109C6239 137 6210 137 6204 137C6186 137 6178 134 6171 115C6149 64 6095 55 6067 55C5992 55 5917 105 5901 191L6199 191C6220 191 6239 191 6239 228C6239 342 6175 440 6045 440C5926 440 5830 340 5830 217ZM5902 251C5916 324 5975 379 6045 379C6097 379 6159 354 6168 251Z" stroke="rgb(208,2,27)" stroke-opacity="1" stroke-width="8" fill="rgb(208,2,27)" fill-opacity="1"></path></g></g></g><g><g><text x="233.1500244140625" y="135.60000610351562" style="white-space:pre;stroke:none;fill:rgb(208,2,27);fill-opacity:1;font-size:15px;font-family:Arial, Helvetica, sans-serif;font-weight:400;font-style:normal;dominant-baseline:text-before-edge;text-decoration:rgb(208, 2, 27);">or protected?</text></g></g></g><g><g><g><text x="173.1500244140625" y="160.01666259765625" style="white-space:pre;stroke:none;fill:rgb(74,144,226);fill-opacity:1;font-size:15px;font-family:Arial, Helvetica, sans-serif;font-weight:400;font-style:normal;dominant-baseline:text-before-edge;text-decoration:rgb(74, 144, 226);">protected?</text></g></g></g><g><g><g><text x="152.1500244140625" y="540.0166625976562" style="white-space:pre;stroke:none;fill:rgb(155,155,155);fill-opacity:1;font-size:15px;font-family:Arial, Helvetica, sans-serif;font-weight:400;font-style:normal;dominant-baseline:text-before-edge;text-decoration:rgb(155, 155, 155);">noalias violations;</text></g></g><g><g><text x="152.1500244140625" y="561.0166625976562" style="white-space:pre;stroke:none;fill:rgb(155,155,155);fill-opacity:1;font-size:15px;font-family:Arial, Helvetica, sans-serif;font-weight:400;font-style:normal;dominant-baseline:text-before-edge;text-decoration:rgb(155, 155, 155);">UB iff protected</text></g></g></g><g><g><g><text x="620.1500244140625" y="172.01666259765625" style="white-space:pre;stroke:none;fill:rgb(155,155,155);fill-opacity:1;font-size:15px;font-family:Arial, Helvetica, sans-serif;font-weight:400;font-style:normal;dominant-baseline:text-before-edge;text-decoration:rgb(155, 155, 155);">UB</text></g></g></g></svg>
</svg>
