<?xml version="1.0" encoding="UTF-8" standalone="no"?>
<svg
   width="427.61475"
   height="415.68161"
   viewBox="330 0 363.47253 67.548262"
   version="1.1"
   xml:space="preserve"
   style="clip-rule:evenodd;fill-rule:evenodd;stroke-linejoin:round;stroke-miterlimit:1.41421"
   id="svg1285"
   sodipodi:docname="bat.svg"
   inkscape:version="1.2.2 (b0a8486541, 2022-12-01)"
   xmlns:inkscape="http://www.inkscape.org/namespaces/inkscape"
   xmlns:sodipodi="http://sodipodi.sourceforge.net/DTD/sodipodi-0.dtd"
   xmlns="http://www.w3.org/2000/svg"
   xmlns:svg="http://www.w3.org/2000/svg"
   xmlns:rdf="http://www.w3.org/1999/02/22-rdf-syntax-ns#"
   xmlns:cc="http://creativecommons.org/ns#"
   xmlns:dc="http://purl.org/dc/elements/1.1/"><metadata
   id="metadata1289"><rdf:RDF><cc:Work
       rdf:about=""><dc:format>image/svg+xml</dc:format><dc:type
         rdf:resource="http://purl.org/dc/dcmitype/StillImage" /></cc:Work></rdf:RDF></metadata><sodipodi:namedview
   pagecolor="#ffffff"
   bordercolor="#666666"
   borderopacity="1"
   objecttolerance="10"
   gridtolerance="10"
   guidetolerance="10"
   inkscape:pageopacity="0"
   inkscape:pageshadow="2"
   inkscape:window-width="638"
   inkscape:window-height="1154"
   id="namedview1287"
   showgrid="false"
   fit-margin-top="0"
   fit-margin-left="0"
   fit-margin-right="0"
   fit-margin-bottom="0"
   inkscape:zoom="0.82573726"
   inkscape:cx="181.65585"
   inkscape:cy="279.14448"
   inkscape:window-x="0"
   inkscape:window-y="22"
   inkscape:window-maximized="0"
   inkscape:current-layer="svg1285"
   showguides="true"
   inkscape:guide-bbox="true"
   inkscape:showpageshadow="2"
   inkscape:pagecheckerboard="0"
   inkscape:deskcolor="#d1d1d1" />
    <rect
   style="opacity:1;fill:#ffffff;fill-opacity:1;fill-rule:evenodd;stroke:none;stroke-width:0.0956825px;stroke-linecap:butt;stroke-linejoin:miter;stroke-miterlimit:4;stroke-dasharray:none;stroke-dashoffset:0;stroke-opacity:1;marker:none"
   id="rect1929"
   width="363.47253"
   height="353.32938"
   x="331.80133"
   y="-142.20508"
   inkscape:highlight-color="#ffffff" /><g
   id="g929"
   transform="translate(11.740409,-43.622793)"><g
     transform="translate(1.9578e-5)"
     id="g6103"><g
       id="g1172"
       transform="matrix(0.31374232,0,0,0.31374232,-949.56013,-170.6326)">
            <path
   inkscape:connector-curvature="0"
   id="path1170"
   style="fill:url(#_Linear1)"
   d="m 4399.57,773.907 c 0,0 35.33,20.718 42.25,24.779 13.1,7.683 47.96,27.832 64.24,37.232 1.77,1.027 2.87,2.923 2.87,4.975 0.01,2.053 -1.08,3.952 -2.85,4.986 -27.1,15.803 -110.2,64.254 -128.26,74.788 -2.16,1.254 -4.82,1.237 -6.95,-0.046 -13.57,-8.147 -62.93,-37.791 -75.02,-44.875 -16.93,-9.911 -37.27,-21.84 -37.27,-21.84 z" />
        </g><g
       id="g1176"
       transform="matrix(0.31374232,0,0,0.31374232,-949.56013,-170.6326)">
            <path
   inkscape:connector-curvature="0"
   id="path1174"
   style="fill:#31369e"
   d="m 4269.48,860.305 c -54.5,-31.918 -88.34,-51.732 -117.18,-68.621 -3.98,-2.335 -6.43,-6.608 -6.44,-11.228 0,-4.619 2.45,-8.893 6.44,-11.229 l 319.41,-187.171 c 2.02,-1.186 4.52,-1.198 6.56,-0.032 2.03,1.166 3.29,3.333 3.29,5.678 0,29.472 0,107.932 0,138.732 0,7.842 -4.16,15.094 -10.94,19.049 -13.32,7.783 -54.43,31.465 -67.73,39.233 0,0 -133.3,75.654 -133.41,75.589 z" />
        </g><g
       id="g1180"
       transform="matrix(0.31374232,0,0,0.31374232,-949.56013,-170.6326)">
            <path
   inkscape:connector-curvature="0"
   id="path1178"
   style="fill:#1d2167"
   d="m 4604.42,705.593 85.54,34.367 v -63.802 c 0,-2.628 -1.37,-5.066 -3.62,-6.431 -2.24,-1.365 -5.04,-1.459 -7.37,-0.247 -5.93,3.078 -74.55,36.113 -74.55,36.113 z" />
        </g><g
       id="g1184"
       transform="matrix(0.31374232,0,0,0.31374232,-949.56013,-170.6326)">
            <path
   inkscape:connector-curvature="0"
   id="path1182"
   style="fill:url(#_Linear2)"
   d="m 4976.91,704.019 c 0,0 -8.53,-4.983 -8.56,-5 -79.92,-46.83 -170.16,-99.71 -199.6,-116.963 -2.02,-1.186 -4.52,-1.198 -6.56,-0.032 -2.04,1.166 -3.29,3.333 -3.29,5.678 0,29.472 0,107.932 0,138.732 0,7.842 4.16,15.094 10.93,19.049 13.33,7.783 68.33,39.913 68.33,39.913 z" />
        </g><g
       id="g1188"
       transform="matrix(0.31374232,0,0,0.31374232,-949.56013,-170.6326)">
            <path
   inkscape:connector-curvature="0"
   id="path1186"
   style="fill:url(#_Linear3)"
   d="m 4968.44,699.073 c 0,0 -235.66,138.235 -263.83,154.762 -3.01,1.764 -6.73,1.783 -9.76,0.05 -3.02,-1.733 -4.89,-4.953 -4.89,-8.44 V 731.796 c 0,0 -111.16,-50.383 -128.47,-59.371 -2.33,-1.212 -4.9781,-0.84921 -7.37,0.247 -1.9592,0.89788 -3.62,3.803 -3.62,6.431 v 166.342 c 0,3.487 0.43,15.045 -12.02,22.226 -2.41,1.392 -130.21,75.278 -130.21,75.278 l 211.99,122.751 c 0,0 377.71,-221.201 467.9,-274.016 3.98,-2.335 6.43,-6.608 6.43,-11.228 0,-4.619 -2.45,-8.893 -6.43,-11.229 -24.64,-14.438 -119.72,-70.154 -119.72,-70.154"
   sodipodi:nodetypes="cccsccsssccccscc" />
        </g></g></g>
    <defs
   id="defs1283"><linearGradient
     id="_Linear1"
     x1="0"
     y1="0"
     x2="1"
     y2="0"
     gradientUnits="userSpaceOnUse"
     gradientTransform="matrix(-158.501,-265.604,265.604,-158.501,4436.06,964.047)"><stop
       offset="0"
       style="stop-color:rgb(49,54,158);stop-opacity:1"
       id="stop1266" /><stop
       offset="0.52"
       style="stop-color:rgb(38,42,122);stop-opacity:1"
       id="stop1268" /><stop
       offset="1"
       style="stop-color:black;stop-opacity:1"
       id="stop1270" /></linearGradient><linearGradient
     id="_Linear2"
     x1="0"
     y1="0"
     x2="1"
     y2="0"
     gradientUnits="userSpaceOnUse"
     gradientTransform="matrix(160.563,96.0376,-96.0376,160.563,4771.78,656.669)"><stop
       offset="0"
       style="stop-color:rgb(49,54,158);stop-opacity:1"
       id="stop1273" /><stop
       offset="1"
       style="stop-color:rgb(29,33,103);stop-opacity:1"
       id="stop1275" /></linearGradient><linearGradient
     id="_Linear3"
     x1="0"
     y1="0"
     x2="1"
     y2="0"
     gradientUnits="userSpaceOnUse"
     gradientTransform="matrix(76.53,136.554,-136.554,76.53,4737.26,847.244)"><stop
       offset="0"
       style="stop-color:rgb(49,54,158);stop-opacity:1"
       id="stop1278" /><stop
       offset="1"
       style="stop-color:rgb(29,33,103);stop-opacity:1"
       id="stop1280" /></linearGradient></defs>
</svg>
