<?xml version="1.0" encoding="UTF-8" standalone="no"?>
<svg
   width="98"
   height="96"
   version="1.1"
   id="svg4"
   sodipodi:docname="github-pull.svg"
   xml:space="preserve"
   inkscape:version="1.2.2 (b0a8486541, 2022-12-01)"
   xmlns:inkscape="http://www.inkscape.org/namespaces/inkscape"
   xmlns:sodipodi="http://sodipodi.sourceforge.net/DTD/sodipodi-0.dtd"
   xmlns="http://www.w3.org/2000/svg"
   xmlns:svg="http://www.w3.org/2000/svg"><defs
     id="defs8"><clipPath
       clipPathUnits="userSpaceOnUse"
       id="clipPath3460"><path
         id="path3462"
         style="fill:#e8e8e8;stroke-width:0.115124"
         d="M 95.966713,77.874826 A 16.977152,16.656153 0 0 1 78.989561,94.530979 16.977152,16.656153 0 0 1 62.012409,77.874826 16.977152,16.656153 0 0 1 78.989561,61.218674 16.977152,16.656153 0 0 1 95.966713,77.874826 Z" /></clipPath></defs><sodipodi:namedview
     id="namedview6"
     pagecolor="#ffffff"
     bordercolor="#000000"
     borderopacity="0.25"
     inkscape:showpageshadow="2"
     inkscape:pageopacity="0.0"
     inkscape:pagecheckerboard="0"
     inkscape:deskcolor="#d1d1d1"
     showgrid="false"
     inkscape:zoom="6.9532167"
     inkscape:cx="71.909164"
     inkscape:cy="54.435237"
     inkscape:window-width="958"
     inkscape:window-height="1154"
     inkscape:window-x="0"
     inkscape:window-y="22"
     inkscape:window-maximized="1"
     inkscape:current-layer="svg4" /><path
     fill-rule="evenodd"
     clip-rule="evenodd"
     d="M48.854 0C21.839 0 0 22 0 49.217c0 21.756 13.993 40.172 33.405 46.69 2.427.49 3.316-1.059 3.316-2.362 0-1.141-.08-5.052-.08-9.127-13.59 2.934-16.42-5.867-16.42-5.867-2.184-5.704-5.42-7.17-5.42-7.17-4.448-3.015.324-3.015.324-3.015 4.934.326 7.523 5.052 7.523 5.052 4.367 7.496 11.404 5.378 14.235 4.074.404-3.178 1.699-5.378 3.074-6.6-10.839-1.141-22.243-5.378-22.243-24.283 0-5.378 1.94-9.778 5.014-13.2-.485-1.222-2.184-6.275.486-13.038 0 0 4.125-1.304 13.426 5.052a46.97 46.97 0 0 1 12.214-1.63c4.125 0 8.33.571 12.213 1.63 9.302-6.356 13.427-5.052 13.427-5.052 2.67 6.763.97 11.816.485 13.038 3.155 3.422 5.015 7.822 5.015 13.2 0 18.905-11.404 23.06-22.324 24.283 1.78 1.548 3.316 4.481 3.316 9.126 0 6.6-.08 11.897-.08 13.526 0 1.304.89 2.853 3.316 2.364 19.412-6.52 33.405-24.935 33.405-46.691C97.707 22 75.788 0 48.854 0z"
     fill="#fff"
     id="path2"
     style="fill:#656565;fill-opacity:1" /><g
     inkscape:groupmode="layer"
     id="layer1"
     inkscape:label="Layer 1"><g
       style="fill:none;stroke:#78ff7b;stroke-opacity:1"
       id="g9402"
       transform="matrix(2.0200104,0,0,1.8278203,53.195213,55.65792)"><path
         d="M 5.5,8 C 6.88071,8 8,6.88071 8,5.5 8,4.11929 6.88071,3 5.5,3 4.11929,3 3,4.11929 3,5.5 3,6.88071 4.11929,8 5.5,8 Z m 0,0 v 8 m 0,0 C 4.11929,16 3,17.1193 3,18.5 3,19.8807 4.11929,21 5.5,21 6.88071,21 8,19.8807 8,18.5 8,17.1193 6.88071,16 5.5,16 Z m 13,0 V 8.7 c 0,-1.1201 0,-1.68016 -0.218,-2.10798 C 18.0903,6.21569 17.7843,5.90973 17.408,5.71799 16.9802,5.5 16.4201,5.5 15.3,5.5 H 12 M 18.5,16 C 19.8807,16 21,17.1193 21,18.5 21,19.8807 19.8807,21 18.5,21 17.1193,21 16,19.8807 16,18.5 16,17.1193 17.1193,16 18.5,16 Z M 12,5.5 14.5,8 M 12,5.5 14.5,3"
         stroke="#000000"
         stroke-width="2"
         stroke-linecap="round"
         stroke-linejoin="round"
         id="path9393"
         style="stroke:#78ff7b;stroke-opacity:1" /></g></g></svg>
