<?xml version="1.0" encoding="UTF-8" standalone="no"?>
<!-- Created with Inkscape (http://www.inkscape.org/) -->

<svg
   width="166.8322mm"
   height="167.83762mm"
   viewBox="0 0 166.8322 167.83762"
   version="1.1"
   id="svg5"
   xml:space="preserve"
   inkscape:version="1.2.2 (b0a8486541, 2022-12-01)"
   sodipodi:docname="acm-reusable.svg"
   xmlns:inkscape="http://www.inkscape.org/namespaces/inkscape"
   xmlns:sodipodi="http://sodipodi.sourceforge.net/DTD/sodipodi-0.dtd"
   xmlns="http://www.w3.org/2000/svg"
   xmlns:svg="http://www.w3.org/2000/svg"><sodipodi:namedview
     id="namedview7"
     pagecolor="#ffffff"
     bordercolor="#000000"
     borderopacity="0.25"
     inkscape:showpageshadow="2"
     inkscape:pageopacity="0.0"
     inkscape:pagecheckerboard="0"
     inkscape:deskcolor="#d1d1d1"
     inkscape:document-units="mm"
     showgrid="false"
     inkscape:zoom="0.2102413"
     inkscape:cx="-183.12291"
     inkscape:cy="311.54678"
     inkscape:window-width="958"
     inkscape:window-height="1154"
     inkscape:window-x="0"
     inkscape:window-y="22"
     inkscape:window-maximized="1"
     inkscape:current-layer="layer1" /><defs
     id="defs2" /><g
     inkscape:label="Layer 1"
     inkscape:groupmode="layer"
     id="layer1"
     transform="translate(-21.415247,-67.006753)"><path
       style="fill:#ff0000;fill-opacity:1;stroke-width:0.222865"
       d="m 92.845679,229.39059 c -1.804633,-2.99957 -3.296527,-5.47707 -3.315321,-5.50556 -0.0188,-0.0285 -2.372318,1.59537 -5.230052,3.60856 -2.857732,2.01319 -5.222566,3.63931 -5.255184,3.61361 -0.03262,-0.0257 -0.962109,-2.65767 -2.065538,-5.84881 -1.10343,-3.19115 -2.086863,-5.88521 -2.185406,-5.98681 -0.09855,-0.10159 -2.779245,0.91784 -5.95711,2.26541 l -5.777938,2.45014 -0.124765,-0.80925 c -0.06862,-0.44508 -0.428638,-3.27515 -0.80004,-6.28903 -0.371401,-3.01389 -0.716362,-5.52131 -0.766577,-5.57205 -0.05022,-0.0507 -2.843804,0.43647 -6.207972,1.08269 -3.364168,0.64622 -6.146753,1.13741 -6.183524,1.09153 -0.03677,-0.0459 0.16952,-2.89538 0.458423,-6.33224 0.288901,-3.43685 0.498004,-6.27564 0.464672,-6.30841 -0.03333,-0.0328 -2.879089,-0.13335 -6.323903,-0.22348 -3.444814,-0.0901 -6.263299,-0.23575 -6.263299,-0.32358 0,-0.0878 0.790803,-2.81718 1.757341,-6.06523 0.966537,-3.24805 1.720239,-5.96621 1.674893,-6.04035 -0.04535,-0.0741 -2.825514,-0.77765 -6.17815,-1.56335 -3.352635,-0.78571 -6.066622,-1.4847 -6.031082,-1.5533 0.03554,-0.0686 1.390038,-2.57581 3.009995,-5.57156 1.767569,-3.26873 2.864764,-5.52827 2.743789,-5.65051 -0.110873,-0.11203 -2.638994,-1.36945 -5.618048,-2.79427 -2.979053,-1.42482 -5.451076,-2.62555 -5.493385,-2.66831 -0.04231,-0.0428 1.786782,-2.26062 4.064646,-4.92859 2.277864,-2.66798 4.103638,-4.88169 4.057277,-4.91936 -0.04636,-0.0377 -2.27922,-1.75569 -4.961908,-3.81784 -2.682687,-2.06214 -4.897617,-3.81705 -4.922066,-3.8998 -0.02445,-0.0828 2.195156,-1.86425 4.932457,-3.95889 2.7373,-2.09464 4.977172,-3.83901 4.977494,-3.87638 3.1e-4,-0.0374 -1.855945,-2.23592 -4.125036,-4.88566 -2.26909,-2.64974 -4.089881,-4.85064 -4.046202,-4.89088 0.04368,-0.0402 2.598594,-1.2678 5.677588,-2.72792 3.078994,-1.46011 5.59817,-2.74187 5.59817,-2.84835 0,-0.10648 -1.340374,-2.65915 -2.978608,-5.67259 -1.840821,-3.3861 -2.878275,-5.51483 -2.715944,-5.57281 0.144465,-0.0516 2.906553,-0.71291 6.137972,-1.46958 3.231419,-0.75667 5.904969,-1.40242 5.941223,-1.43499 0.03625,-0.0326 -0.73696,-2.75762 -1.718251,-6.05567 -0.981291,-3.29805 -1.784165,-6.06706 -1.784165,-6.15335 0,-0.0863 2.800946,-0.21332 6.224325,-0.28229 3.423379,-0.069 6.269136,-0.17069 6.323903,-0.22603 0.05477,-0.0553 -0.136797,-2.912587 -0.425698,-6.349437 -0.288903,-3.43685 -0.507115,-6.27431 -0.484915,-6.30547 0.0222,-0.0312 2.797055,0.46785 6.166346,1.10889 3.369292,0.64105 6.173711,1.11731 6.232045,1.05837 0.05833,-0.0589 0.45992,-2.8674 0.892415,-6.24102 0.432496,-3.37362 0.82896,-6.1769 0.881033,-6.22952 0.05207,-0.0526 2.612823,0.9715 5.690555,2.2758 3.077735,1.30431 5.70476,2.37064 5.837835,2.36962 0.133074,-0.001 1.128296,-2.59692 2.211603,-5.76867 1.083307,-3.17174 2.046205,-5.85262 2.139771,-5.95751 0.09357,-0.10488 2.486355,1.4375 5.317305,3.42751 2.830949,1.99 5.174088,3.58799 5.206977,3.55108 0.03289,-0.0369 1.533643,-2.51734 3.33501,-5.51205 2.599126,-4.32096 3.329524,-5.38459 3.538308,-5.15259 0.144703,0.16078 1.940357,2.10695 3.990347,4.3248 2.04999,2.21786 3.89114,4.21113 4.09144,4.4295 0.34367,0.37466 0.60463,0.13812 4.63386,-4.20049 2.34832,-2.52863 4.34778,-4.59751 4.44324,-4.59751 0.0955,0 1.59917,2.3712 3.34155,5.26934 1.74239,2.89814 3.22987,5.30702 3.30551,5.35308 0.0756,0.046 2.42071,-1.51866 5.21126,-3.47714 2.79056,-1.95847 5.13514,-3.55971 5.21018,-3.55829 0.075,10e-4 1.03437,2.63386 2.13183,5.84987 1.09746,3.21601 2.10268,5.89039 2.23381,5.94306 0.13113,0.0527 2.76508,-0.97178 5.85323,-2.27656 3.08815,-1.30478 5.68487,-2.29172 5.77048,-2.1932 0.0856,0.0985 0.48625,2.92623 0.8903,6.28382 0.63525,5.27869 0.78515,6.1047 1.10788,6.1047 0.20527,0 3.0002,-0.50272 6.21095,-1.11715 3.21075,-0.61443 5.86868,-1.08586 5.90653,-1.04762 0.0378,0.0382 -0.16779,2.88483 -0.45696,6.32575 -0.28918,3.44092 -0.49515,6.290737 -0.45773,6.332937 0.0374,0.0422 2.86899,0.13315 6.29237,0.20213 4.62858,0.0932 6.22433,0.19441 6.22433,0.39456 0,0.14803 -0.78503,2.90725 -1.74452,6.1316 -0.95948,3.22434 -1.66988,5.90905 -1.57866,5.96601 0.0912,0.057 2.79681,0.72101 6.01242,1.47566 3.21562,0.75464 5.91462,1.43667 5.99777,1.51562 0.0832,0.0789 -1.1889,2.60562 -2.82679,5.61483 -1.6379,3.00921 -2.97593,5.5295 -2.97339,5.60065 0.003,0.0711 2.54665,1.33266 5.6536,2.80338 3.10694,1.47072 5.64849,2.73087 5.64789,2.80032 -6.6e-4,0.0695 -1.84384,2.28153 -4.09609,4.91572 l -4.09499,4.78942 1.04758,0.80689 c 0.57617,0.44379 2.79354,2.15218 4.9275,3.79642 2.13396,1.64425 3.90748,3.06548 3.94116,3.1583 0.0337,0.0928 -1.36309,1.26364 -3.10394,2.60181 -1.74084,1.33817 -3.98387,3.07415 -4.98451,3.85773 l -1.81934,1.42468 4.03644,4.71613 c 2.22004,2.59387 4.03643,4.80798 4.03643,4.92023 0,0.11226 -2.44435,1.36988 -5.43189,2.79473 -2.98753,1.42485 -5.51217,2.6692 -5.6103,2.76523 -0.0981,0.096 1.17886,2.67094 2.83775,5.72204 1.65889,3.0511 2.9863,5.57454 2.94979,5.60765 -0.0365,0.0331 -2.76015,0.68936 -6.05254,1.45834 -3.29239,0.76898 -6.04798,1.46095 -6.12352,1.53772 -0.0755,0.0768 0.67961,2.87329 1.67812,6.2145 l 1.81548,6.07492 -6.33403,0.16303 c -3.48371,0.0897 -6.3471,0.17867 -6.36309,0.19779 -0.016,0.0191 0.20752,2.85007 0.4967,6.291 0.28917,3.44092 0.48475,6.29766 0.43463,6.34831 -0.0501,0.0506 -2.77392,-0.42078 -6.05287,-1.04762 -3.27894,-0.62685 -6.06382,-1.13972 -6.18862,-1.13972 -0.13119,0 -0.53674,2.57479 -0.96154,6.10471 -0.40405,3.35758 -0.81294,6.19364 -0.90863,6.30234 -0.0964,0.10955 -2.70926,-0.87513 -5.8622,-2.20927 -3.12851,-1.3238 -5.76449,-2.32005 -5.85774,-2.21387 -0.0932,0.10617 -1.05718,2.78863 -2.14209,5.96101 -1.0849,3.1724 -2.05427,5.76829 -2.15415,5.76867 -0.0999,4.5e-4 -2.47019,-1.60905 -5.26735,-3.57649 l -5.08574,-3.57718 -0.5122,0.83286 c -0.28171,0.45807 -1.73633,2.87381 -3.23248,5.3683 -1.49616,2.49449 -2.78637,4.57472 -2.86714,4.62274 -0.0808,0.048 -2.04246,-1.96516 -4.35933,-4.47371 -2.31687,-2.50856 -4.27838,-4.56359 -4.35892,-4.56674 -0.0805,-0.003 -1.76772,1.73328 -3.74929,3.85873 -1.98157,2.12544 -3.922144,4.2016 -4.312386,4.61367 l -0.709529,0.74924 z m 18.295801,-6.92041 c 21.67455,-1.98046 41.06651,-13.66199 53.06805,-31.96769 7.91837,-12.07772 11.75929,-25.06539 11.74368,-39.71009 -0.01,-9.18719 -1.3496,-16.84645 -4.42825,-25.31491 -1.06169,-2.92038 -4.61978,-10.14976 -6.37158,-12.94586 -9.27493,-14.803997 -23.73233,-25.865107 -40.17024,-30.733587 -15.49212,-4.58836 -32.549854,-3.66809 -47.430681,2.55892 -5.65587,2.36675 -12.426566,6.45004 -17.515069,10.56303 -3.107594,2.51184 -8.093742,7.556307 -10.607129,10.731217 -8.114082,10.24964 -13.188121,22.10319 -15.151668,35.39607 -0.572566,3.87617 -0.571433,15.6273 0.0019,19.49024 1.743812,11.74968 5.466716,21.45933 11.853732,30.91556 2.658162,3.93551 4.768528,6.47276 8.572067,10.306 12.129853,12.22459 27.281881,19.2929 44.573748,20.79333 2.10779,0.18289 9.52244,0.13149 11.86147,-0.0822 z m -10.79887,-0.88099 C 90.608954,220.86822 82.032581,218.50029 73.450829,214.1644 65.834535,210.3163 59.65646,205.6369 53.4654,199.02705 48.681033,193.91904 43.893902,186.7178 41.085605,180.40422 33.71883,163.84233 32.697254,146.06554 38.128687,128.94989 c 4.778799,-15.05906 14.873175,-28.46927 28.005722,-37.205107 5.661402,-3.766 10.248716,-6.01813 16.628229,-8.1636 7.367868,-2.47786 12.474426,-3.34844 20.619002,-3.51521 6.3815,-0.13066 9.72703,0.1486 15.29797,1.27699 28.61311,5.79555 50.63641,28.861947 55.40018,58.024127 1.45461,8.9046 1.15824,18.46179 -0.84754,27.33114 -2.89962,12.82187 -9.44536,24.75325 -18.74622,34.17007 -11.24326,11.38343 -25.5802,18.4249 -41.46002,20.36272 -3.44259,0.4201 -9.52739,0.59193 -12.6834,0.35817 z m 13.23768,-5.92763 c 7.26479,-1.09044 13.01233,-2.83575 19.17789,-5.8236 17.91063,-8.67955 30.94022,-25.15278 35.23514,-44.54757 2.49468,-11.26534 2.01861,-23.28525 -1.34819,-34.0391 -2.37944,-7.60011 -6.27123,-14.99391 -11.20089,-21.27992 -2.3253,-2.96508 -7.18722,-7.87471 -10.15946,-10.259127 -14.49307,-11.62681 -32.76781,-16.43474 -51.026897,-13.42474 -16.299238,2.68692 -31.270694,11.86716 -41.168499,25.243837 -7.024684,9.49371 -11.236645,20.24072 -12.577562,32.09224 -0.502821,4.44412 -0.338171,12.94189 0.332061,17.13797 1.557177,9.74892 4.832138,18.2493 10.098385,26.21102 2.804586,4.24008 4.54573,6.38991 8.091318,9.99056 10.913713,11.08319 24.945522,17.68991 40.578994,19.10616 2.26153,0.20488 11.72723,-0.0714 13.96771,-0.40773 z m -14.18942,-0.50009 c -6.686154,-0.67768 -12.494971,-2.08806 -18.309045,-4.44544 -18.376697,-7.45102 -32.177061,-22.93292 -37.688311,-42.28053 -1.632299,-5.73029 -2.366426,-11.25213 -2.360534,-17.75511 0.0132,-14.56659 4.614024,-28.04204 13.576537,-39.76458 2.102928,-2.75053 7.681211,-8.39909 10.573101,-10.7063 C 80.85036,87.709453 101.3112,83.311673 120.675,88.282163 c 22.70965,5.82934 40.58182,24.029887 46.20352,47.052457 4.22018,17.28292 1.10236,35.95063 -8.45601,50.62983 -6.40885,9.84233 -14.71023,17.34247 -24.88835,22.48615 -7.22266,3.65009 -14.66811,5.83625 -22.58245,6.63074 -2.11086,0.2119 -9.73912,0.26477 -11.56084,0.0801 z m 5.13291,-5.33666 c 0.51604,-0.34346 1.02731,-0.98851 1.41008,-1.77906 0.52355,-1.08126 0.58995,-1.45177 0.51803,-2.89078 -0.0683,-1.36555 -0.19056,-1.80814 -0.70837,-2.56315 -1.1443,-1.66847 -3.31332,-2.13903 -4.8867,-1.06015 l -0.81301,0.55749 0.15021,-2.68574 0.15022,-2.68573 h -1.25267 -1.252671 l -0.0037,0.95211 c -0.002,0.52366 -0.146932,3.46456 -0.32204,6.53534 -0.175111,3.07078 -0.267347,5.66668 -0.204967,5.76867 0.06238,0.10198 0.504705,0.18542 0.982948,0.18542 0.73088,0 0.89065,-0.085 1.00196,-0.53312 l 0.13242,-0.53313 0.57237,0.536 c 1.16658,1.09244 3.0559,1.17419 4.52585,0.19583 z m -4.04142,-1.8886 c -0.56405,-0.56994 -0.64807,-0.8197 -0.64807,-1.92637 0,-2.54842 1.34343,-3.82732 3.07178,-2.92422 0.77101,0.40287 1.1407,1.21399 1.1407,2.50275 0,2.52738 -2.05022,3.87784 -3.56441,2.34784 z m 10.60939,2.11726 c 0.0687,-0.0619 -0.77211,-10.93224 -0.95398,-12.3333 l -0.11705,-0.90174 -1.15424,0.11765 -1.15424,0.11765 0.063,1.00811 c 0.0346,0.55447 0.2575,3.40965 0.49521,6.34485 0.23772,2.9352 0.43222,5.49016 0.43222,5.67767 0,0.28206 0.20104,0.31359 1.16397,0.18258 0.64019,-0.0871 1.19148,-0.18316 1.2251,-0.21347 z m -16.407519,-3.75885 c 0.807844,-3.80526 0.771424,-4.43362 -0.32394,-5.58888 -0.684243,-0.72166 -2.351717,-1.29974 -3.749065,-1.29974 -1.384513,0 -1.640716,0.16116 -1.640716,1.03208 v 0.76012 h 1.344834 c 1.821498,0 2.634929,0.44875 2.642547,1.45783 0.0032,0.41885 -0.115314,0.44427 -1.726028,0.37036 -2.594906,-0.11908 -3.720165,0.50498 -4.228027,2.34481 -0.443036,1.60498 0.792018,3.21463 2.60132,3.39029 0.729332,0.0708 1.32713,-0.008 1.777873,-0.23562 0.651831,-0.32857 0.677101,-0.32343 0.629819,0.12807 -0.03875,0.37007 0.139864,0.52928 0.837582,0.74659 0.487762,0.15192 0.936724,0.28389 0.997694,0.29327 0.06097,0.009 0.437218,-1.52026 0.836107,-3.39918 z m -5.059932,0.49277 c -0.533864,-0.53944 -0.420914,-1.22791 0.305134,-1.85988 0.360394,-0.31369 0.710587,-0.38855 1.432799,-0.3063 0.525705,0.0599 1.016768,0.17044 1.091253,0.2457 0.246484,0.24906 -0.386952,1.92045 -0.815698,2.15231 -0.671477,0.36312 -1.521557,0.26524 -2.013488,-0.23183 z m 29.533961,2.035 c 0.77671,-0.24241 1.59709,-0.57735 1.82308,-0.74432 0.39045,-0.28849 0.39231,-0.33988 0.0373,-1.03359 -0.27807,-0.54334 -0.46897,-0.68898 -0.7466,-0.56957 -2.13242,0.91714 -3.44945,1.01064 -4.33388,0.30768 -1.16805,-0.92839 -0.84548,-1.19628 2.21102,-1.83624 1.53736,-0.32189 2.83885,-0.62937 2.89221,-0.68328 0.22826,-0.23065 -0.47418,-2.25193 -1.07275,-3.08686 -1.39949,-1.95211 -4.16057,-2.05773 -5.971,-0.22839 -1.77484,1.79339 -1.69469,5.21747 0.16616,7.09775 1.24589,1.25891 2.71676,1.48769 4.99448,0.77682 z m -4.24771,-5.60304 c 0,-1.55915 2.02077,-2.40208 3.06529,-1.27863 0.81974,0.8817 0.63395,1.18627 -0.90362,1.48136 -0.76213,0.14627 -1.56028,0.3174 -1.77368,0.38029 -0.31066,0.0915 -0.38799,-0.0247 -0.38799,-0.58302 z m -30.926243,2.80889 c 1.334635,-0.56347 2.037107,-2.33808 1.407877,-3.55662 -0.138974,-0.26913 -0.694455,-0.97116 -1.234402,-1.56005 -1.000656,-1.09138 -1.124213,-1.61331 -0.479093,-2.02377 0.427656,-0.2721 1.442528,0.0886 2.166375,0.77006 0.467761,0.44033 0.469339,0.44004 1.016275,-0.18546 l 0.547787,-0.62647 -0.750341,-0.71171 c -0.780676,-0.74049 -1.964264,-1.18912 -3.142804,-1.19126 -0.961628,-0.002 -2.143443,0.8645 -2.442592,1.79036 -0.351137,1.08677 -0.04468,1.92679 1.1501,3.15248 0.813951,0.83501 1.003167,1.17319 0.944756,1.68852 -0.122349,1.0794 -1.402068,1.01536 -2.698764,-0.13504 -0.700122,-0.62114 -0.770182,-0.63931 -1.067076,-0.2768 -0.907562,1.10816 -0.907098,1.07664 -0.0258,1.75585 0.829775,0.63952 2.697207,1.41124 3.448584,1.42515 0.217311,0.004 0.738916,-0.13784 1.15912,-0.31524 z m -7.872961,-2.78821 c 0,-0.10914 1.003352,-1.88442 2.229673,-3.94508 1.226318,-2.06066 2.19907,-3.76847 2.16167,-3.79513 -0.504913,-0.35995 -1.719619,-1.02239 -1.874734,-1.02239 -0.111331,0 -0.744567,0.92533 -1.407189,2.05629 -1.722997,2.94081 -2.078327,3.32033 -3.108681,3.32033 -2.034479,0 -2.042733,-1.48411 -0.02695,-4.84693 0.748598,-1.24885 1.361087,-2.33131 1.361087,-2.40547 0,-0.12542 -1.663991,-1.26058 -1.847842,-1.26058 -0.217473,0 -3.306599,5.44752 -3.50886,6.1877 -0.602345,2.2043 1.65916,4.51523 3.808988,3.89223 0.726348,-0.21049 0.766495,-0.16873 0.436582,0.45416 -0.188018,0.35498 -0.09005,0.51564 0.60574,0.99339 0.877953,0.60281 1.170521,0.69566 1.170521,0.37148 z m 60.126024,-1.40822 c 0.34898,-0.27673 0.29134,-0.75247 -0.82311,-6.79432 -0.6591,-3.57321 -1.20209,-6.51485 -1.20666,-6.53698 -0.0175,-0.0849 -2.00448,1.09242 -2.09588,1.24186 -0.0904,0.14771 1.64087,8.59442 1.988,9.69956 0.0921,0.29313 -1.41576,-1.02324 -3.56942,-3.11619 l -3.72884,-3.62371 -1.06784,0.58727 c -0.58732,0.32299 -1.05991,0.64685 -1.05021,0.71968 0.01,0.0728 2.16368,2.12088 4.78661,4.55124 l 4.76897,4.41883 0.81156,-0.42484 c 0.44636,-0.23365 0.98043,-0.55874 1.18682,-0.7224 z m -69.332671,-5.55105 c 0.186041,-0.36352 0.338258,-0.70679 0.338258,-0.7628 0,-0.056 -0.438446,-0.36148 -0.974325,-0.67881 -1.398694,-0.82825 -2.130341,-1.78734 -2.126218,-2.78719 0.0018,-0.4526 0.09555,-0.97011 0.208175,-1.15004 0.2373,-0.37908 0.04085,-0.5166 2.83712,1.98608 1.020397,0.91326 1.961143,1.5861 2.127478,1.5216 0.531937,-0.20625 1.672696,-2.19284 1.816809,-3.1639 0.329629,-2.22109 -1.726509,-4.43685 -4.11722,-4.43685 -1.262555,0 -2.353595,0.49569 -3.442022,1.5638 -2.546332,2.4988 -2.037865,5.5203 1.295297,7.69713 0.734307,0.47956 1.416843,0.87193 1.516748,0.87193 0.0999,0 0.333859,-0.29743 0.5199,-0.66095 z m 0.227403,-5.72769 c -1.275839,-1.17505 -1.312652,-1.23898 -0.899891,-1.56274 1.013708,-0.79513 3.006134,0.007 3.006134,1.20988 0,0.50211 -0.444085,1.59184 -0.645291,1.58347 -0.07188,-0.003 -0.72931,-0.55676 -1.460952,-1.23061 z m 78.461308,4.81164 0.76748,-0.68089 -3.79212,-4.58371 c -2.08567,-2.52104 -3.90544,-4.58371 -4.04393,-4.58371 -0.47678,0 -1.51524,1.33408 -2.13115,2.73782 l -0.61718,1.40665 0.59708,0.49601 c 0.32839,0.2728 0.67545,0.49962 0.77124,0.50405 0.0958,0.004 0.36934,-0.45205 0.6079,-1.0144 0.23856,-0.56235 0.51327,-0.9728 0.61046,-0.9121 0.0972,0.0607 1.51918,1.73054 3.15998,3.71077 1.64079,1.98022 3.05515,3.60041 3.14301,3.60041 0.0879,0 0.50512,-0.3064 0.92723,-0.6809 z m 5.38611,-5.18282 c 0.60425,-0.5736 0.64459,-1.01577 0.15684,-1.7194 -0.50455,-0.72787 -1.18943,-0.93635 -1.88937,-0.57514 -0.96421,0.4976 -1.10689,1.28172 -0.39876,2.19136 0.56795,0.72958 1.42757,0.77119 2.13129,0.10318 z m -90.784286,-1.36111 c 1.515147,-2.03503 1.726689,-2.43738 1.726689,-3.28411 0,-0.63872 0.03551,-0.66762 0.568707,-0.46278 1.87094,0.71876 4.200124,-0.66037 4.463267,-2.64274 0.171685,-1.29338 -0.250011,-2.32705 -1.693823,-4.15187 -1.645433,-2.07966 -2.139666,-2.52163 -2.50258,-2.23794 -2.37243,1.8545 -9.260541,7.50115 -9.260541,7.59148 0,0.24324 1.167065,1.65955 1.367499,1.65955 0.113478,0 1.009533,-0.65527 1.991235,-1.45617 0.981702,-0.80089 1.876177,-1.45616 1.987721,-1.45616 0.358157,0 1.081442,1.43358 1.082298,2.14516 6.65e-4,0.49019 -0.354179,1.16248 -1.229504,2.32994 -0.70899,0.94561 -1.178053,1.77861 -1.106955,1.96583 0.159742,0.42063 1.076337,1.59551 1.257305,1.6116 0.07668,0.007 0.683586,-0.71849 1.348682,-1.61179 z m 1.706096,-5.87836 c -0.316175,-0.17368 -0.830203,-0.65404 -1.142279,-1.06747 l -0.567413,-0.75169 1.310444,-1.05956 c 0.720745,-0.58277 1.446399,-1.11229 1.612564,-1.17672 0.432385,-0.16765 1.689504,1.64364 1.689504,2.4343 0,0.79834 -1.080461,1.95861 -1.812052,1.94589 -0.283744,-0.005 -0.774592,-0.15107 -1.090768,-0.32475 z m 94.16567,0.77722 c 0.32443,-0.49536 0.54272,-0.9483 0.48509,-1.00653 -0.0576,-0.0582 -2.24221,-1.66632 -4.85463,-3.57354 l -4.74986,-3.46769 -0.50155,0.60976 c -0.53953,0.65594 -0.85619,1.61279 -1.08016,3.26396 -0.1396,1.02907 -0.13282,1.04326 0.65778,1.37705 0.43936,0.18549 0.84043,0.33726 0.89127,0.33726 0.0508,0 0.16043,-0.54995 0.24354,-1.22211 l 0.15111,-1.2221 3.92064,2.88654 c 2.15635,1.5876 3.99404,2.89363 4.08377,2.9023 0.0897,0.009 0.42857,-0.38954 0.753,-0.8849 z m -35.3918,-16.90959 15.85127,-16.01804 -15.90729,-16.07346 -15.90728,-16.07346 -15.907284,16.07346 -15.907287,16.07346 15.851276,16.01804 c 8.718203,8.80992 15.901685,16.01804 15.963295,16.01804 0.0616,0 7.24509,-7.20812 15.9633,-16.01804 z m -18.62382,4.34845 c -7.644998,-0.99443 -14.133113,-6.45927 -16.599355,-13.98136 -2.421591,-7.38592 -0.483298,-15.43939 5.042855,-20.95272 3.879044,-3.87004 8.63973,-5.81837 14.21702,-5.81837 5.57729,0 10.33798,1.94833 14.21702,5.81837 9.75961,9.73696 7.39785,26.155 -4.70153,32.6832 -2.06213,1.11262 -4.72502,1.9599 -7.10899,2.26195 -2.06699,0.26189 -2.984,0.25988 -5.06702,-0.0111 z m 6.85196,-3.2304 c 4.47875,-1.08738 8.6895,-4.36053 11.03796,-8.58016 6.02971,-10.83397 -1.00449,-24.60174 -13.28944,-26.01092 -8.02333,-0.92034 -15.747015,4.01313 -18.383667,11.74249 -3.470116,10.17266 2.793332,21.06423 13.266417,23.06909 2.04021,0.39056 5.24715,0.29459 7.36873,-0.2205 z M 90.370543,155.18125 c -1.207551,-0.55156 -1.775603,-2.41474 -1.155489,-3.78996 0.372603,-0.82632 1.752107,-1.49105 3.421174,-1.64854 1.596817,-0.15067 2.062503,-0.55376 1.303347,-1.12818 -0.435334,-0.32939 -2.725795,-0.29807 -3.805089,0.052 -0.468209,0.15188 -0.498847,0.0986 -0.498847,-0.86816 0,-0.93249 0.05771,-1.04628 0.609702,-1.20226 1.19606,-0.33798 4.547492,-0.19513 5.31728,0.22664 1.216689,0.66663 1.389439,1.29805 1.389439,5.07857 v 3.37152 h -1.330258 c -1.188992,0 -1.330259,-0.0483 -1.330259,-0.45476 0,-0.45127 -0.0049,-0.45107 -0.642053,0.0249 -0.809545,0.60477 -2.347933,0.76345 -3.278947,0.3382 z m 3.643863,-1.98435 c 0.152426,-0.12051 0.277137,-0.61001 0.277137,-1.08777 0,-0.81277 -0.04214,-0.86868 -0.654697,-0.86868 -1.338342,0 -2.384435,0.99196 -1.893151,1.79517 0.366788,0.59968 1.60495,0.68762 2.270711,0.16128 z m 7.034644,2.00125 c -1.36309,-0.45215 -2.03631,-0.99164 -2.53413,-2.03075 -0.498048,-1.03957 -0.590266,-2.6555 -0.22697,-3.97713 0.28995,-1.0548 1.68603,-2.33015 2.91946,-2.66697 1.01713,-0.27776 2.77781,-0.17904 3.78163,0.21204 0.56385,0.21967 0.6097,0.33122 0.6097,1.4833 v 1.24576 l -0.82745,-0.56814 c -0.95825,-0.65795 -2.35236,-0.75844 -3.1075,-0.224 -1.09252,0.77323 -1.18602,3.23876 -0.16206,4.27342 0.67885,0.68595 2.12262,0.7253 3.1601,0.0861 0.39925,-0.24597 0.77339,-0.44721 0.83141,-0.44721 0.058,0 0.1055,0.50655 0.1055,1.12567 0,1.02051 -0.057,1.14808 -0.6097,1.36553 -0.97081,0.3819 -2.97031,0.44399 -3.93999,0.12234 z m 6.10166,-4.29374 v -4.3685 h 1.33026 c 1.19705,0 1.33025,0.0464 1.33025,0.46331 v 0.4633 l 0.64647,-0.46513 c 1.28285,-0.92301 2.76358,-0.876 3.67402,0.11665 l 0.51363,0.56 1.06285,-0.68108 c 1.61491,-1.03484 3.04723,-0.85309 3.85733,0.48948 0.39287,0.65109 0.44279,1.13079 0.44352,4.26207 l 8.3e-4,3.52841 h -1.33026 -1.33026 v -2.92707 c 0,-1.60988 -0.10327,-3.12206 -0.22951,-3.36038 -0.25266,-0.47705 -1.09462,-0.5723 -1.78045,-0.20142 -0.39256,0.21228 -0.42884,0.49663 -0.42884,3.36039 v 3.12848 h -1.33026 -1.33026 v -2.98963 c 0,-2.61179 -0.0512,-3.03649 -0.40545,-3.36039 -0.46555,-0.42571 -0.9901,-0.47111 -1.60451,-0.13885 -0.39256,0.21228 -0.42885,0.49663 -0.42885,3.36039 v 3.12848 h -1.33025 -1.33026 z m -48.076582,-2.61321 0.07723,-1.15705 -1.219807,-0.54759 c -0.670891,-0.30117 -1.425613,-0.62773 -1.677156,-0.72568 -0.435157,-0.16946 -0.447426,-0.26883 -0.252856,-2.0478 0.112471,-1.02833 0.237296,-1.90548 0.277388,-1.94922 0.04009,-0.0437 0.852263,-0.24565 1.804826,-0.4487 l 1.73193,-0.36918 0.148707,-1.23058 c 0.08179,-0.67682 0.121151,-1.25843 0.08747,-1.29246 -0.0616,-0.0622 -12.817782,2.60951 -12.890797,2.69995 -0.02151,0.0266 -0.106545,0.70384 -0.188992,1.50491 l -0.1499,1.45649 5.831624,2.61783 c 3.207395,1.4398 5.946709,2.62419 6.087366,2.63198 0.152703,0.008 0.286853,-0.45202 0.332967,-1.1429 z m -7.239997,-4.1395 c -0.975523,-0.42649 -1.966847,-0.85313 -2.202944,-0.94809 -0.301948,-0.12145 0.289866,-0.31738 1.995388,-0.66061 1.333559,-0.26838 2.477174,-0.48788 2.541367,-0.48778 0.12645,1.9e-4 0.04013,1.59126 -0.130666,2.40845 -0.129379,0.61902 -0.04698,0.63069 -2.203145,-0.31197 z m 105.492329,4.53086 c 3.3915,-0.29256 6.22168,-0.58782 6.28928,-0.65613 0.0676,-0.0683 0.033,-0.60805 -0.077,-1.19941 -0.13406,-0.7212 -0.30685,-1.06838 -0.52483,-1.0545 -0.17873,0.0114 -1.25272,0.091 -2.38665,0.17689 l -2.06168,0.15621 0.36901,-0.56907 c 0.46492,-0.71697 0.48185,-2.51212 0.0319,-3.38629 -1.125,-2.18581 -4.16686,-3.00005 -6.72,-1.7988 -2.50764,1.17984 -3.22267,4.17244 -1.42979,5.98405 0.59517,0.60138 0.60075,0.62744 0.1483,0.69268 -0.392,0.0565 -0.48136,0.24462 -0.53771,1.13191 -0.0573,0.90303 -0.007,1.06338 0.33257,1.05926 0.22007,-0.003 3.175,-0.24424 6.56651,-0.5368 z m -4.3927,-2.40534 c -0.7044,-0.38931 -0.99769,-0.88995 -0.99769,-1.70307 0,-1.04456 0.34901,-1.60565 1.23013,-1.97766 1.49764,-0.63229 3.54008,-0.23691 4.08433,0.79065 0.35143,0.66352 0.2714,1.70118 -0.17408,2.25707 -0.5876,0.73324 -3.2306,1.13709 -4.14269,0.63301 z m -2.3028,-7.48334 c 0.36755,-0.19205 0.63187,-0.41888 0.58738,-0.50406 -1.29448,-2.47868 -1.46055,-3.99235 -0.54004,-4.92248 0.65973,-0.66662 0.86143,-0.56346 1.21834,0.62313 0.12971,0.43125 0.49456,1.65811 0.81076,2.72636 0.57031,1.92667 0.57981,1.94085 1.18294,1.76607 3.13418,-0.90826 4.40332,-3.32222 3.13667,-5.9661 -1.24618,-2.60115 -5.10022,-3.15197 -7.50445,-1.07254 -1.76455,1.52617 -1.85504,4.28567 -0.22779,6.94613 0.53423,0.87344 0.47249,0.85479 1.33619,0.40349 z m 3.1232,-4.46265 c -0.2683,-0.92151 -0.48783,-1.77841 -0.48783,-1.90422 0,-0.60741 2.03585,0.091 2.30108,0.7894 0.32987,0.8686 0.13954,1.86023 -0.44645,2.32598 -0.32129,0.25537 -0.6505,0.46431 -0.73156,0.46431 -0.0811,0 -0.36693,-0.75396 -0.63524,-1.67547 z m -92.697517,2.24183 c 0.137309,-0.551 0.245422,-1.07791 0.240249,-1.17091 -0.0052,-0.093 -1.083788,-0.50066 -2.396926,-0.90591 -1.31314,-0.40525 -2.615465,-0.88774 -2.894054,-1.07219 -0.598193,-0.39604 -0.83572,-1.18567 -0.668976,-2.22392 0.117595,-0.73223 0.09665,-0.75583 -0.894717,-1.00807 -0.810413,-0.2062 -1.052114,-0.19937 -1.198513,0.0339 -0.309882,0.49367 -0.21133,1.37902 0.250403,2.24951 l 0.440575,0.83061 -0.635396,-0.12841 c -0.724408,-0.14639 -0.813096,-0.0537 -1.021252,1.06747 l -0.150623,0.81128 1.072762,0.26331 c 0.590018,0.14482 2.469534,0.70389 4.176699,1.24238 1.707164,0.53849 3.177326,0.98667 3.267025,0.99595 0.0897,0.009 0.275435,-0.43396 0.412744,-0.98496 z m 86.757807,-5.64243 c 0.7602,-0.36629 0.76638,-0.38063 0.43952,-1.01931 -0.18234,-0.35628 -0.277,-0.82137 -0.21036,-1.03352 0.10655,-0.33922 4.02849,-2.50421 4.53645,-2.50421 0.10709,0 0.35438,0.40325 0.54955,0.8961 0.19516,0.49286 0.41049,0.89611 0.4785,0.89611 0.35787,0 1.43081,-0.7217 1.42404,-0.95787 -0.004,-0.15085 -0.15044,-0.5263 -0.32471,-0.83434 -0.47718,-0.84347 -0.41146,-1.01613 0.55428,-1.45617 0.48776,-0.22224 0.88535,-0.46438 0.88354,-0.53808 -0.002,-0.0737 -0.33084,-0.52516 -0.73117,-1.00326 l -0.72787,-0.86927 -0.73055,0.38173 c -0.4018,0.20995 -0.75765,0.34909 -0.79077,0.3092 -0.0331,-0.0399 -0.17561,-0.2967 -0.31664,-0.5707 -0.25035,-0.48636 -0.27489,-0.48928 -1.03446,-0.12328 -0.47092,0.22691 -0.73162,0.48988 -0.66044,0.66619 0.0647,0.16022 0.17615,0.43728 0.24773,0.61569 0.0949,0.23643 -0.52986,0.65886 -2.30378,1.55781 -2.86966,1.45422 -3.45909,2.06342 -3.30915,3.42012 0.0871,0.78842 0.89376,2.53859 1.17,2.53859 0.0469,0 0.43222,-0.16719 0.85629,-0.37153 z m -84.608633,-1.09944 c 0.563263,-0.39865 1.376623,-1.88556 1.376623,-2.51661 0,-0.37789 -0.798878,-0.94099 -1.334997,-0.94099 -0.113072,0 -0.360362,0.30244 -0.549536,0.67208 -0.219043,0.42801 -0.515657,0.67208 -0.816765,0.67208 -0.359933,0 -4.184359,-1.60143 -4.575162,-1.91579 -0.03899,-0.0314 0.142563,-0.47981 0.403458,-0.99655 0.260895,-0.51674 0.442451,-0.96734 0.403459,-1.00133 -0.135813,-0.11842 -1.490734,-0.79088 -1.593515,-0.79088 -0.05694,0 -0.271197,0.44362 -0.476123,0.98582 l -0.372599,0.98583 -1.004214,-0.44886 c -1.091406,-0.48782 -1.38084,-0.35369 -1.387808,0.64314 -0.0018,0.26716 -0.06283,0.64223 -0.135465,0.8335 -0.09221,0.24281 0.102703,0.46089 0.645856,0.72261 0.70713,0.34073 0.756013,0.42343 0.537161,0.90877 -0.26528,0.58831 -0.160214,0.7437 0.773933,1.14456 0.537584,0.2307 0.634176,0.20407 0.861442,-0.23748 0.140784,-0.27352 0.282418,-0.52929 0.314746,-0.56837 0.03233,-0.0391 0.592488,0.20363 1.2448,0.53938 3.193257,1.64359 4.71646,1.99436 5.684706,1.30909 z m 2.887766,-5.00027 c 0.266335,-0.47884 0.484245,-0.92512 0.484245,-0.99174 0,-0.14711 -7.564049,-4.9117 -7.643827,-4.81484 -0.03099,0.0376 -0.320521,0.49697 -0.643393,1.02077 l -0.587041,0.95235 1.056057,0.65873 c 0.580831,0.3623 2.253289,1.41663 3.716573,2.34296 1.463284,0.92632 2.766859,1.68831 2.896829,1.69329 0.129971,0.005 0.454222,-0.3827 0.720557,-0.86152 z m 81.290627,-1.86829 c 1.83912,-1.35849 2.28017,-1.80303 2.62643,-2.64725 0.61159,-1.49111 0.26493,-2.57133 -1.37052,-4.27065 -0.69897,-0.72626 -1.42908,-1.32048 -1.62247,-1.32048 -0.19339,0 -0.52804,0.27208 -0.74368,0.60462 -0.32226,0.49696 -0.33667,0.62236 -0.0809,0.70426 0.17113,0.0548 0.68528,0.49265 1.14255,0.97299 0.62181,0.65318 0.83142,1.06173 0.83142,1.62058 0,1.33936 -0.4596,1.36626 -1.67763,0.0982 -1.16777,-1.21576 -2.13948,-1.76037 -3.1409,-1.76037 -1.62102,0 -3.12884,1.72002 -2.84553,3.24598 0.18622,1.00302 1.10725,2.09499 2.17413,2.57763 0.72682,0.32881 0.79943,0.42325 0.51123,0.66494 -0.29505,0.24743 -0.26247,0.38492 0.26785,1.1304 l 0.60376,0.8487 0.557,-0.41844 c 0.30635,-0.23014 1.55163,-1.15313 2.76729,-2.05109 z m -4.21575,-1.61944 c -0.97308,-0.98324 -0.50351,-2.13842 0.86926,-2.13842 0.51959,0 0.91151,0.20314 1.42528,0.73875 0.38974,0.40631 0.70862,0.81104 0.70862,0.89939 0,0.28277 -1.42293,1.04846 -1.95004,1.04933 -0.27991,4.4e-4 -0.75381,-0.24661 -1.05312,-0.54905 z M 68.850353,121.0124 c 0.335336,-0.47911 0.609701,-0.92405 0.609701,-0.98877 0,-0.0932 -3.629541,-3.05296 -5.30888,-4.32922 -0.3067,-0.23308 -0.293337,-0.31956 0.121145,-0.78409 0.78439,-0.87909 0.790063,-1.02539 0.06014,-1.55056 l -0.69861,-0.50266 -0.617503,0.7645 -0.617502,0.76451 -0.571027,-0.54206 c -0.698314,-0.66289 -0.753977,-1.69447 -0.127775,-2.36799 l 0.443248,-0.47675 -0.680835,-0.65782 -0.680835,-0.65782 -0.743907,0.81894 c -1.430923,1.57526 -1.420882,3.27541 0.02892,4.89693 0.68609,0.76736 0.744974,0.92567 0.509591,1.37008 -0.234965,0.44363 -0.191934,0.56226 0.367438,1.01294 0.628341,0.50626 0.637362,0.50688 1.092277,0.075 0.457784,-0.43456 0.464251,-0.43097 3.220851,1.784 1.51918,1.22069 2.812029,2.22449 2.872999,2.23067 0.06097,0.006 0.385221,-0.38076 0.720557,-0.85987 z m -11.629995,-1.55022 c 0.442891,-0.57028 0.242348,-1.66038 -0.361048,-1.96259 -0.7046,-0.3529 -1.325622,-0.14702 -1.681721,0.55751 -0.72943,1.44316 1.058242,2.67277 2.042769,1.40508 z m 85.720032,-5.73737 1.97896,-2.16266 -0.82082,-0.82723 -0.82082,-0.82722 -2.15583,2.29792 c -1.98969,2.12084 -2.2199,2.2978 -2.98724,2.29627 -1.39851,-0.003 -2.09316,-1.09954 -1.46478,-2.31266 0.1394,-0.26913 1.1077,-1.43371 2.15176,-2.58795 l 1.8983,-2.09862 -0.86157,-0.79783 -0.86158,-0.79782 -2.0723,2.22437 c -2.52781,2.71329 -3.03859,3.59944 -2.88231,5.00045 0.0889,0.79667 0.28173,1.1728 0.89034,1.73637 0.79995,0.74076 2.16213,1.26702 2.71983,1.05078 0.42135,-0.16338 0.40377,0.24501 -0.0261,0.60546 -0.30116,0.25256 -0.25475,0.37867 0.388,1.05429 l 0.73007,0.76741 1.10855,-1.22934 c 0.6097,-0.67613 1.99908,-2.20253 3.0875,-3.39199 z m -70.593458,3.12525 c 0.844721,-0.44138 1.769027,-1.83153 1.769027,-2.66059 0,-0.60918 0.02702,-0.63012 0.387992,-0.30062 0.357828,0.32664 0.449514,0.29716 1.17938,-0.37928 l 0.791391,-0.73346 -2.574112,-2.5914 c -2.795206,-2.81398 -3.428675,-3.15156 -4.957266,-2.64181 -1.148698,0.38306 -3.474065,3.02151 -3.474065,3.94181 0,0.0951 1.233584,0.77526 1.406068,0.77526 0.05381,0 0.158691,-0.24503 0.233077,-0.5445 0.229121,-0.92243 1.536774,-2.14381 2.295234,-2.14381 1.028591,0 1.278999,0.48635 0.586804,1.13971 -0.728053,0.68721 -1.55313,2.12703 -1.740646,3.03756 -0.311069,1.51048 1.191677,3.4396 2.679374,3.4396 0.423489,0 1.061475,-0.15231 1.417742,-0.33847 z m -1.651637,-2.25383 c -0.568012,-0.57394 -0.431272,-1.69595 0.313054,-2.56875 l 0.661455,-0.77563 0.690877,0.75658 c 0.56833,0.62238 0.66718,0.88067 0.55728,1.45617 -0.238367,1.24823 -1.481103,1.88094 -2.222666,1.13163 z m 64.336835,-8.45036 c 1.98232,-2.98279 3.60357,-5.48545 3.60279,-5.56149 -0.003,-0.2769 -1.82932,-1.352077 -1.98695,-1.169647 -0.47092,0.54497 -7.10458,10.621257 -7.10458,10.791587 0,0.18481 1.52025,1.34939 1.77368,1.35871 0.061,0.002 1.73275,-2.43638 3.71506,-5.41916 z m -54.355355,3.98945 c 0.607824,-0.30606 1.444685,-0.91045 1.859688,-1.3431 l 0.754556,-0.78663 -0.607572,-0.6408 -0.607571,-0.64079 -0.674804,0.63695 c -0.943371,0.89045 -2.182167,1.23925 -3.074644,0.86571 -1.100603,-0.46065 -1.882517,-1.6762 -1.882517,-2.92654 0,-1.26217 0.446938,-1.8674 1.845979,-2.4998 0.678858,-0.30686 0.921539,-0.53256 0.830467,-0.77237 -0.07077,-0.18636 -0.189715,-0.58457 -0.26432,-0.88493 -0.150539,-0.60605 -0.429261,-0.5834 -1.872975,0.15219 -0.906589,0.46193 -2.343066,1.98432 -2.655289,2.8141 -0.595583,1.58288 -0.0097,3.83989 1.354598,5.21845 1.45936,1.47461 3.132406,1.74512 4.994404,0.80756 z m 48.409145,-3.39923 c 2.0546,-4.34606 2.13369,-5.04122 0.74971,-6.58912 -1.28331,-1.435317 -4.72644,-2.416497 -4.72644,-1.346877 0,0.23635 -0.0552,0.57502 -0.12261,0.7526 -0.0924,0.24335 0.19862,0.38674 1.18158,0.582137 1.53512,0.30518 2.26668,0.89537 2.26668,1.82867 0,0.36484 -0.0249,0.66205 -0.0554,0.66046 -0.0305,-0.002 -0.68787,-0.20322 -1.46086,-0.44805 -1.7025,-0.53926 -2.50302,-0.55881 -3.4906,-0.0853 -1.76262,0.84516 -2.1913,3.33952 -0.79118,4.6036 0.79558,0.71828 2.0459,1.11541 2.94174,0.93437 0.54162,-0.10946 0.63923,-0.0576 0.63923,0.33972 0,0.4455 0.87769,1.12556 1.47944,1.14632 0.14302,0.005 0.76795,-1.06542 1.38874,-2.37855 z m -4.37081,-0.87356 c -0.69401,-0.49118 -0.66248,-1.5448 0.0605,-2.02349 0.60742,-0.40216 1.73269,-0.30617 2.42731,0.20706 0.37207,0.2749 0.37435,0.33793 0.0362,0.99862 -0.59068,1.15419 -1.5909,1.47826 -2.52408,0.81781 z m -36.59007,0.65939 c 0.826798,-0.42678 0.915191,-0.65052 0.617313,-1.56254 -0.200978,-0.61533 -0.342371,-0.75785 -0.625463,-0.63044 -0.201182,0.0905 -0.665092,0.17306 -1.030913,0.18337 -0.612497,0.0173 -0.729968,-0.1142 -1.484526,-1.66144 -1.423474,-2.918857 -1.416674,-2.83334 -0.266145,-3.347587 l 0.994448,-0.44448 -0.370641,-0.73627 c -0.203853,-0.40494 -0.395384,-0.76568 -0.425627,-0.80164 -0.03024,-0.036 -0.470654,0.10267 -0.978695,0.30807 -0.508042,0.2054 -0.964291,0.33245 -1.013892,0.28234 -0.0496,-0.0501 -0.271058,-0.52147 -0.492129,-1.04744 l -0.401949,-0.95632 -0.926135,0.80102 c -0.918363,0.7943 -0.923543,0.80729 -0.617213,1.5481 0.296925,0.71807 0.286939,0.7572 -0.257103,1.00767 -0.413715,0.19047 -0.523577,0.36469 -0.408274,0.647427 0.08676,0.21277 0.210178,0.57185 0.274252,0.79798 0.09322,0.32896 0.258971,0.38413 0.829281,0.27603 0.710134,-0.13462 0.71544,-0.12866 1.429181,1.60509 1.706214,4.14457 2.808018,4.94215 5.15423,3.73106 z m 5.424989,-2.06305 c 1.308202,-0.67499 1.850063,-1.45663 1.850063,-2.66873 0,-0.83544 -0.122085,-1.12366 -0.740746,-1.74879 -0.407409,-0.411657 -0.981083,-0.796147 -1.27483,-0.854417 -0.293746,-0.0583 -1.032933,-0.19022 -1.642634,-0.29323 -0.943834,-0.15947 -1.119914,-0.26866 -1.185032,-0.73482 -0.105206,-0.75313 0.491816,-1.13268 1.781681,-1.13268 h 1.066173 v -0.8961 -0.8961 h -1.149405 c -1.442421,0 -2.95771,0.71086 -3.527335,1.65477 -1.072556,1.77729 -0.02654,3.759127 2.140443,4.055397 1.821148,0.24899 2.196784,0.42602 2.272665,1.07107 0.09752,0.82907 -0.975304,1.37108 -2.433599,1.2295 l -1.071834,-0.10407 v 1.00533 1.00534 l 1.496541,-0.10855 c 0.900243,-0.0653 1.863636,-0.29796 2.417849,-0.58392 z m 26.936301,-3.57758 c 1.54243,-2.181897 2.78955,-3.981967 2.77138,-4.000137 -0.0182,-0.0182 -0.5524,-0.18782 -1.18716,-0.37701 l -1.15411,-0.34397 -1.72812,2.80946 -1.72811,2.809447 -0.15351,-0.86426 c -0.0844,-0.47535 -0.16035,-1.620357 -0.16872,-2.544457 -0.008,-0.92411 -0.0747,-2.04342 -0.14735,-2.48735 -0.12372,-0.75578 -0.20328,-0.82375 -1.25016,-1.06791 -0.61491,-0.14343 -1.15535,-0.22305 -1.20099,-0.17694 -0.11481,0.11602 0.81214,9.404407 0.95313,9.550697 0.0957,0.0992 1.72619,0.60673 2.07845,0.6469 0.061,0.007 1.37285,-1.77256 2.91527,-3.95447 z m -8.40039,1.80156 c 0.0584,-0.46205 0.0306,-0.9246 -0.0618,-1.02788 -0.0924,-0.10328 -1.16871,-0.2435 -2.39188,-0.31161 -1.22316,-0.0681 -2.33411,-0.19263 -2.46877,-0.27672 -0.16555,-0.10338 -0.196,-0.68394 -0.094,-1.792527 l 0.15081,-1.63962 2.27424,0.14061 2.27425,0.1406 0.1518,-0.9079 c 0.0835,-0.49934 0.11034,-0.94979 0.0597,-1.00099 -0.0507,-0.0512 -1.10815,-0.16037 -2.34996,-0.2426 l -2.25783,-0.14951 0.003,-1.25447 c 0.005,-1.87437 0.004,-1.87399 2.71011,-1.69085 l 2.33381,0.15796 0.0897,-0.95024 c 0.0508,-0.53862 -0.01,-0.98362 -0.14028,-1.0273 -0.57339,-0.19214 -6.86855,-0.5337 -7.01137,-0.38041 -0.17855,0.19162 -1.00927,12.313137 -0.85454,12.469047 0.0889,0.0896 4.71359,0.47211 6.66943,0.55167 0.77337,0.0315 0.8116,-0.002 0.91329,-0.80726 z"
       id="path348" /></g></svg>
